<svg id="SvgjsSvg1594" width="1590" height="934.5" xmlns="http://www.w3.org/2000/svg" version="1.1" xmlns:xlink="http://www.w3.org/1999/xlink" xmlns:svgjs="http://svgjs.com/svgjs"><defs id="SvgjsDefs1595"><marker id="SvgjsMarker1720" markerWidth="16" markerHeight="12" refX="16" refY="6" viewBox="0 0 16 12" orient="auto" markerUnits="userSpaceOnUse" stroke-dasharray="0,0"><path id="SvgjsPath1721" d="M0,2 L14,6 L0,11 L0,2" fill="#323232" stroke="#323232" stroke-width="2"></path></marker><marker id="SvgjsMarker1724" markerWidth="16" markerHeight="12" refX="16" refY="6" viewBox="0 0 16 12" orient="auto" markerUnits="userSpaceOnUse" stroke-dasharray="0,0"><path id="SvgjsPath1725" d="M0,2 L14,6 L0,11 L0,2" fill="#323232" stroke="#323232" stroke-width="2"></path></marker><marker id="SvgjsMarker1728" markerWidth="16" markerHeight="12" refX="16" refY="6" viewBox="0 0 16 12" orient="auto" markerUnits="userSpaceOnUse" stroke-dasharray="0,0"><path id="SvgjsPath1729" d="M0,2 L14,6 L0,11 L0,2" fill="#323232" stroke="#323232" stroke-width="2"></path></marker><marker id="SvgjsMarker1754" markerWidth="16" markerHeight="12" refX="16" refY="6" viewBox="0 0 16 12" orient="auto" markerUnits="userSpaceOnUse" stroke-dasharray="0,0"><path id="SvgjsPath1755" d="M0,2 L14,6 L0,11 L0,2" fill="#323232" stroke="#323232" stroke-width="2"></path></marker><marker id="SvgjsMarker1768" markerWidth="16" markerHeight="12" refX="16" refY="6" viewBox="0 0 16 12" orient="auto" markerUnits="userSpaceOnUse" stroke-dasharray="0,0"><path id="SvgjsPath1769" d="M0,2 L14,6 L0,11 L0,2" fill="#323232" stroke="#323232" stroke-width="2"></path></marker><marker id="SvgjsMarker1788" markerWidth="16" markerHeight="12" refX="16" refY="6" viewBox="0 0 16 12" orient="auto" markerUnits="userSpaceOnUse" stroke-dasharray="0,0"><path id="SvgjsPath1789" d="M0,2 L14,6 L0,11 L0,2" fill="#323232" stroke="#323232" stroke-width="2"></path></marker><marker id="SvgjsMarker1792" markerWidth="16" markerHeight="12" refX="16" refY="6" viewBox="0 0 16 12" orient="auto" markerUnits="userSpaceOnUse" stroke-dasharray="0,0"><path id="SvgjsPath1793" d="M0,2 L14,6 L0,11 L0,2" fill="#323232" stroke="#323232" stroke-width="2"></path></marker><marker id="SvgjsMarker1796" markerWidth="16" markerHeight="12" refX="16" refY="6" viewBox="0 0 16 12" orient="auto" markerUnits="userSpaceOnUse" stroke-dasharray="0,0"><path id="SvgjsPath1797" d="M0,2 L14,6 L0,11 L0,2" fill="#323232" stroke="#323232" stroke-width="2"></path></marker><marker id="SvgjsMarker1804" markerWidth="16" markerHeight="12" refX="16" refY="6" viewBox="0 0 16 12" orient="auto" markerUnits="userSpaceOnUse" stroke-dasharray="0,0"><path id="SvgjsPath1805" d="M0,2 L14,6 L0,11 L0,2" fill="#323232" stroke="#323232" stroke-width="2"></path></marker><marker id="SvgjsMarker1812" markerWidth="16" markerHeight="12" refX="16" refY="6" viewBox="0 0 16 12" orient="auto" markerUnits="userSpaceOnUse" stroke-dasharray="0,0"><path id="SvgjsPath1813" d="M0,2 L14,6 L0,11 L0,2" fill="#323232" stroke="#323232" stroke-width="2"></path></marker><marker id="SvgjsMarker1830" markerWidth="16" markerHeight="12" refX="16" refY="6" viewBox="0 0 16 12" orient="auto" markerUnits="userSpaceOnUse" stroke-dasharray="0,0"><path id="SvgjsPath1831" d="M0,2 L14,6 L0,11 L0,2" fill="#323232" stroke="#323232" stroke-width="2"></path></marker><marker id="SvgjsMarker1844" markerWidth="16" markerHeight="12" refX="16" refY="6" viewBox="0 0 16 12" orient="auto" markerUnits="userSpaceOnUse" stroke-dasharray="0,0"><path id="SvgjsPath1845" d="M0,2 L14,6 L0,11 L0,2" fill="#323232" stroke="#323232" stroke-width="2"></path></marker><marker id="SvgjsMarker1848" markerWidth="16" markerHeight="12" refX="16" refY="6" viewBox="0 0 16 12" orient="auto" markerUnits="userSpaceOnUse" stroke-dasharray="0,0"><path id="SvgjsPath1849" d="M0,2 L14,6 L0,11 L0,2" fill="#323232" stroke="#323232" stroke-width="2"></path></marker><marker id="SvgjsMarker1852" markerWidth="16" markerHeight="12" refX="16" refY="6" viewBox="0 0 16 12" orient="auto" markerUnits="userSpaceOnUse" stroke-dasharray="0,0"><path id="SvgjsPath1853" d="M0,2 L14,6 L0,11 L0,2" fill="#323232" stroke="#323232" stroke-width="2"></path></marker><marker id="SvgjsMarker1856" markerWidth="16" markerHeight="12" refX="16" refY="6" viewBox="0 0 16 12" orient="auto" markerUnits="userSpaceOnUse" stroke-dasharray="0,0"><path id="SvgjsPath1857" d="M0,2 L14,6 L0,11 L0,2" fill="#323232" stroke="#323232" stroke-width="2"></path></marker><marker id="SvgjsMarker1860" markerWidth="16" markerHeight="12" refX="16" refY="6" viewBox="0 0 16 12" orient="auto" markerUnits="userSpaceOnUse" stroke-dasharray="0,0"><path id="SvgjsPath1861" d="M0,2 L14,6 L0,11 L0,2" fill="#323232" stroke="#323232" stroke-width="2"></path></marker><marker id="SvgjsMarker1864" markerWidth="16" markerHeight="12" refX="16" refY="6" viewBox="0 0 16 12" orient="auto" markerUnits="userSpaceOnUse" stroke-dasharray="0,0"><path id="SvgjsPath1865" d="M0,2 L14,6 L0,11 L0,2" fill="#323232" stroke="#323232" stroke-width="2"></path></marker><marker id="SvgjsMarker1878" markerWidth="16" markerHeight="12" refX="16" refY="6" viewBox="0 0 16 12" orient="auto" markerUnits="userSpaceOnUse" stroke-dasharray="0,0"><path id="SvgjsPath1879" d="M0,2 L14,6 L0,11 L0,2" fill="#323232" stroke="#323232" stroke-width="2"></path></marker><marker id="SvgjsMarker1882" markerWidth="16" markerHeight="12" refX="16" refY="6" viewBox="0 0 16 12" orient="auto" markerUnits="userSpaceOnUse" stroke-dasharray="0,0"><path id="SvgjsPath1883" d="M0,2 L14,6 L0,11 L0,2" fill="#323232" stroke="#323232" stroke-width="2"></path></marker><marker id="SvgjsMarker1886" markerWidth="16" markerHeight="12" refX="16" refY="6" viewBox="0 0 16 12" orient="auto" markerUnits="userSpaceOnUse" stroke-dasharray="0,0"><path id="SvgjsPath1887" d="M0,2 L14,6 L0,11 L0,2" fill="#323232" stroke="#323232" stroke-width="2"></path></marker></defs><g id="SvgjsG1596" transform="translate(345,296)"><path id="SvgjsPath1597" d="M 0 4Q 0 0 4 0L 589 0Q 593 0 593 4L 593 529Q 593 533 589 533L 4 533Q 0 533 0 529Z" stroke="rgba(50,50,50,1)" stroke-width="2" fill-opacity="1" fill="#ffffff"></path><g id="SvgjsG1598"><text id="SvgjsText1599" font-family="微软雅黑" text-anchor="middle" font-size="13px" width="573px" fill="#323232" font-weight="400" align="middle" lineHeight="125%" anchor="middle" family="微软雅黑" size="13px" weight="400" font-style="" opacity="1" y="256.875" transform="rotate(0)"></text></g></g><g id="SvgjsG1600" transform="translate(29,68.5)"><path id="SvgjsPath1601" d="M 0 0L 140 0L 140 303L 0 303Z" stroke="rgba(50,50,50,1)" stroke-width="2" fill-opacity="1" fill="#ffffff"></path><g id="SvgjsG1602"><text id="SvgjsText1603" font-family="微软雅黑" text-anchor="middle" font-size="13px" width="120px" fill="#323232" font-weight="400" align="middle" lineHeight="125%" anchor="middle" family="微软雅黑" size="13px" weight="400" font-style="" opacity="1" y="141.875" transform="rotate(0)"></text></g></g><g id="SvgjsG1604" transform="translate(58.5,115)"><path id="SvgjsPath1605" d="M 0 0L 81 0L 81 32L 0 32Z" stroke="rgba(50,50,50,1)" stroke-width="2" fill-opacity="1" fill="#ffffff"></path><g id="SvgjsG1606"><text id="SvgjsText1607" font-family="微软雅黑" text-anchor="middle" font-size="13px" width="61px" fill="#323232" font-weight="400" align="middle" lineHeight="125%" anchor="middle" family="微软雅黑" size="13px" weight="400" font-style="" opacity="1" y="6.375" transform="rotate(0)"><tspan id="SvgjsTspan1608" dy="16" x="40.5"><tspan id="SvgjsTspan1609" style="text-decoration:;">浏览器</tspan></tspan></text></g></g><g id="SvgjsG1610" transform="translate(58.5,204)"><path id="SvgjsPath1611" d="M 0 0L 81 0L 81 32L 0 32Z" stroke="rgba(50,50,50,1)" stroke-width="2" fill-opacity="1" fill="#ffffff"></path><g id="SvgjsG1612"><text id="SvgjsText1613" font-family="微软雅黑" text-anchor="middle" font-size="13px" width="61px" fill="#323232" font-weight="400" align="middle" lineHeight="125%" anchor="middle" family="微软雅黑" size="13px" weight="400" font-style="" opacity="1" y="6.375" transform="rotate(0)"><tspan id="SvgjsTspan1614" dy="16" x="40.5"><tspan id="SvgjsTspan1615" style="text-decoration:;">QQ</tspan></tspan></text></g></g><g id="SvgjsG1616" transform="translate(58.5,295)"><path id="SvgjsPath1617" d="M 0 0L 81 0L 81 32L 0 32Z" stroke="rgba(50,50,50,1)" stroke-width="2" fill-opacity="1" fill="#ffffff"></path><g id="SvgjsG1618"><text id="SvgjsText1619" font-family="微软雅黑" text-anchor="middle" font-size="13px" width="61px" fill="#323232" font-weight="400" align="middle" lineHeight="125%" anchor="middle" family="微软雅黑" size="13px" weight="400" font-style="" opacity="1" y="6.375" transform="rotate(0)"><tspan id="SvgjsTspan1620" dy="16" x="40.5"><tspan id="SvgjsTspan1621" style="text-decoration:;">微信</tspan></tspan></text></g></g><g id="SvgjsG1622" transform="translate(39,25)"><path id="SvgjsPath1623" d="M 0 0L 120 0L 120 40L 0 40Z" stroke="none" fill="none"></path><g id="SvgjsG1624"><text id="SvgjsText1625" font-family="微软雅黑" text-anchor="middle" font-size="13px" width="120px" fill="#323232" font-weight="400" align="middle" lineHeight="125%" anchor="middle" family="微软雅黑" size="13px" weight="400" font-style="" opacity="1" y="10.375" transform="rotate(0)"><tspan id="SvgjsTspan1626" dy="16" x="60"><tspan id="SvgjsTspan1627" style="text-decoration:;">本地应用</tspan></tspan></text></g></g><g id="SvgjsG1628" transform="translate(399.5,185.34375)"><path id="SvgjsPath1629" d="M 0 0L 105.5 0L 105.5 69.3125L 0 69.3125Z" stroke="rgba(50,50,50,1)" stroke-width="2" fill-opacity="1" fill="#ffffff"></path><g id="SvgjsG1630"><text id="SvgjsText1631" font-family="微软雅黑" text-anchor="middle" font-size="13px" width="86px" fill="#323232" font-weight="400" align="middle" lineHeight="125%" anchor="middle" family="微软雅黑" size="13px" weight="400" font-style="" opacity="1" y="17.03125" transform="rotate(0)"><tspan id="SvgjsTspan1632" dy="16" x="53"><tspan id="SvgjsTspan1633" style="text-decoration:;">SocketProxy</tspan></tspan><tspan id="SvgjsTspan1634" dy="16" x="53"><tspan id="SvgjsTspan1635" style="text-decoration:;">客户端</tspan></tspan></text></g></g><g id="SvgjsG1636" transform="translate(1139,407.5)"><path id="SvgjsPath1637" d="M 0 0L 100 0L 100 70L 0 70Z" stroke="rgba(50,50,50,1)" stroke-width="2" fill-opacity="1" fill="#ffffff"></path><g id="SvgjsG1638"><text id="SvgjsText1639" font-family="微软雅黑" text-anchor="middle" font-size="13px" width="80px" fill="#323232" font-weight="400" align="middle" lineHeight="125%" anchor="middle" family="微软雅黑" size="13px" weight="400" font-style="" opacity="1" y="17.375" transform="rotate(0)"><tspan id="SvgjsTspan1640" dy="16" x="50"><tspan id="SvgjsTspan1641" style="text-decoration:;">SocketProxy</tspan></tspan><tspan id="SvgjsTspan1642" dy="16" x="50"><tspan id="SvgjsTspan1643" style="text-decoration:;">服务器</tspan></tspan></text></g></g><g id="SvgjsG1644" transform="translate(1425,291.5)"><path id="SvgjsPath1645" d="M 0 0L 140 0L 140 303L 0 303Z" stroke="rgba(50,50,50,1)" stroke-width="2" fill-opacity="1" fill="#ffffff"></path><g id="SvgjsG1646"><text id="SvgjsText1647" font-family="微软雅黑" text-anchor="middle" font-size="13px" width="120px" fill="#323232" font-weight="400" align="middle" lineHeight="125%" anchor="middle" family="微软雅黑" size="13px" weight="400" font-style="" opacity="1" y="141.875" transform="rotate(0)"></text></g></g><g id="SvgjsG1648" transform="translate(1454.5,338)"><path id="SvgjsPath1649" d="M 0 0L 81 0L 81 32L 0 32Z" stroke="rgba(50,50,50,1)" stroke-width="2" fill-opacity="1" fill="#ffffff"></path><g id="SvgjsG1650"><text id="SvgjsText1651" font-family="微软雅黑" text-anchor="middle" font-size="13px" width="61px" fill="#323232" font-weight="400" align="middle" lineHeight="125%" anchor="middle" family="微软雅黑" size="13px" weight="400" font-style="" opacity="1" y="6.375" transform="rotate(0)"><tspan id="SvgjsTspan1652" dy="16" x="40.5"><tspan id="SvgjsTspan1653" style="text-decoration:;">谷歌</tspan></tspan></text></g></g><g id="SvgjsG1654" transform="translate(1435,248)"><path id="SvgjsPath1655" d="M 0 0L 120 0L 120 40L 0 40Z" stroke="none" fill="none"></path><g id="SvgjsG1656"><text id="SvgjsText1657" font-family="微软雅黑" text-anchor="middle" font-size="13px" width="120px" fill="#323232" font-weight="400" align="middle" lineHeight="125%" anchor="middle" family="微软雅黑" size="13px" weight="400" font-style="" opacity="1" y="10.375" transform="rotate(0)"><tspan id="SvgjsTspan1658" dy="16" x="60"><tspan id="SvgjsTspan1659" style="text-decoration:;">国外服务器</tspan></tspan></text></g></g><g id="SvgjsG1660" transform="translate(1454.5,427)"><path id="SvgjsPath1661" d="M 0 0L 81 0L 81 32L 0 32Z" stroke="rgba(50,50,50,1)" stroke-width="2" fill-opacity="1" fill="#ffffff"></path><g id="SvgjsG1662"><text id="SvgjsText1663" font-family="微软雅黑" text-anchor="middle" font-size="13px" width="61px" fill="#323232" font-weight="400" align="middle" lineHeight="125%" anchor="middle" family="微软雅黑" size="13px" weight="400" font-style="" opacity="1" y="6.375" transform="rotate(0)"><tspan id="SvgjsTspan1664" dy="16" x="40.5"><tspan id="SvgjsTspan1665" style="text-decoration:;">github</tspan></tspan></text></g></g><g id="SvgjsG1666" transform="translate(1454.5,518)"><path id="SvgjsPath1667" d="M 0 0L 81 0L 81 32L 0 32Z" stroke="rgba(50,50,50,1)" stroke-width="2" fill-opacity="1" fill="#ffffff"></path><g id="SvgjsG1668"><text id="SvgjsText1669" font-family="微软雅黑" text-anchor="middle" font-size="13px" width="61px" fill="#323232" font-weight="400" align="middle" lineHeight="125%" anchor="middle" family="微软雅黑" size="13px" weight="400" font-style="" opacity="1" y="6.375" transform="rotate(0)"><tspan id="SvgjsTspan1670" dy="16" x="40.5"><tspan id="SvgjsTspan1671" style="text-decoration:;">facebook</tspan></tspan></text></g></g><g id="SvgjsG1672" transform="translate(25,606.5)"><path id="SvgjsPath1673" d="M 0 0L 140 0L 140 303L 0 303Z" stroke="rgba(50,50,50,1)" stroke-width="2" fill-opacity="1" fill="#ffffff"></path><g id="SvgjsG1674"><text id="SvgjsText1675" font-family="微软雅黑" text-anchor="middle" font-size="13px" width="120px" fill="#323232" font-weight="400" align="middle" lineHeight="125%" anchor="middle" family="微软雅黑" size="13px" weight="400" font-style="" opacity="1" y="141.875" transform="rotate(0)"></text></g></g><g id="SvgjsG1676" transform="translate(54.5,655)"><path id="SvgjsPath1677" d="M 0 0L 81 0L 81 32L 0 32Z" stroke="rgba(50,50,50,1)" stroke-width="2" fill-opacity="1" fill="#ffffff"></path><g id="SvgjsG1678"><text id="SvgjsText1679" font-family="微软雅黑" text-anchor="middle" font-size="13px" width="61px" fill="#323232" font-weight="400" align="middle" lineHeight="125%" anchor="middle" family="微软雅黑" size="13px" weight="400" font-style="" opacity="1" y="6.375" transform="rotate(0)"><tspan id="SvgjsTspan1680" dy="16" x="40.5"><tspan id="SvgjsTspan1681" style="text-decoration:;">腾讯</tspan></tspan></text></g></g><g id="SvgjsG1682" transform="translate(35,562.5)"><path id="SvgjsPath1683" d="M 0 0L 120 0L 120 40L 0 40Z" stroke="none" fill="none"></path><g id="SvgjsG1684"><text id="SvgjsText1685" font-family="微软雅黑" text-anchor="middle" font-size="13px" width="120px" fill="#323232" font-weight="400" align="middle" lineHeight="125%" anchor="middle" family="微软雅黑" size="13px" weight="400" font-style="" opacity="1" y="10.375" transform="rotate(0)"><tspan id="SvgjsTspan1686" dy="16" x="60"><tspan id="SvgjsTspan1687" style="text-decoration:;">国内服务器</tspan></tspan></text></g></g><g id="SvgjsG1688" transform="translate(54.5,745)"><path id="SvgjsPath1689" d="M 0 0L 81 0L 81 32L 0 32Z" stroke="rgba(50,50,50,1)" stroke-width="2" fill-opacity="1" fill="#ffffff"></path><g id="SvgjsG1690"><text id="SvgjsText1691" font-family="微软雅黑" text-anchor="middle" font-size="13px" width="61px" fill="#323232" font-weight="400" align="middle" lineHeight="125%" anchor="middle" family="微软雅黑" size="13px" weight="400" font-style="" opacity="1" y="6.375" transform="rotate(0)"><tspan id="SvgjsTspan1692" dy="16" x="40.5"><tspan id="SvgjsTspan1693" style="text-decoration:;">百度</tspan></tspan></text></g></g><g id="SvgjsG1694" transform="translate(54.5,835)"><path id="SvgjsPath1695" d="M 0 0L 81 0L 81 32L 0 32Z" stroke="rgba(50,50,50,1)" stroke-width="2" fill-opacity="1" fill="#ffffff"></path><g id="SvgjsG1696"><text id="SvgjsText1697" font-family="微软雅黑" text-anchor="middle" font-size="13px" width="61px" fill="#323232" font-weight="400" align="middle" lineHeight="125%" anchor="middle" family="微软雅黑" size="13px" weight="400" font-style="" opacity="1" y="6.375" transform="rotate(0)"><tspan id="SvgjsTspan1698" dy="16" x="40.5"><tspan id="SvgjsTspan1699" style="text-decoration:;">bilibili</tspan></tspan></text></g></g><g id="SvgjsG1700" transform="translate(399.5,75)"><path id="SvgjsPath1701" d="M 0 0L 948.75 0L 948.75 129L 0 129Z" stroke="none" fill="none"></path><g id="SvgjsG1702"><text id="SvgjsText1703" font-family="微软雅黑" text-anchor="start" font-size="13px" width="949px" fill="#323232" font-weight="400" align="middle" lineHeight="125%" anchor="start" family="微软雅黑" size="13px" weight="400" font-style="" opacity="1" y="6.875" transform="rotate(0)"><tspan id="SvgjsTspan1704" dy="16" x="0"><tspan id="SvgjsTspan1705" style="text-decoration:;">1. 监听本地TCP地址</tspan></tspan><tspan id="SvgjsTspan1706" dy="16" x="0"><tspan id="SvgjsTspan1707" style="text-decoration:;">2. 让本地应用连接客户端（windows可以设置系统代理，通过http/socks5的方式让本地应用连接客户端）</tspan></tspan><tspan id="SvgjsTspan1708" dy="16" x="0"><tspan id="SvgjsTspan1709" style="text-decoration:;">3. 客户端解析本地应用请求的http/socks5数据，获取访问的目的地址</tspan></tspan><tspan id="SvgjsTspan1710" dy="16" x="0"><tspan id="SvgjsTspan1711" style="text-decoration:;">4. 解析域名，如果域名在gfw列表，则通过 SocketProxy服务器解析域名</tspan></tspan><tspan id="SvgjsTspan1712" dy="16" x="0"><tspan id="SvgjsTspan1713" style="text-decoration:;">5. 解析域名之后获取ip，判断ip是否在国内</tspan></tspan><tspan id="SvgjsTspan1714" dy="16" x="0"><tspan id="SvgjsTspan1715" style="text-decoration:;">6. ip在国内，客户端直接与国内服务器建立连接，转发数据；ip在国外，与SocketProxy服务器建立连接，然后将数据发送给SocketProxy服务器转发数据</tspan></tspan><tspan id="SvgjsTspan1716" dy="16" x="0"><tspan id="SvgjsTspan1717" style="text-decoration:;"> </tspan></tspan></text></g></g><g id="SvgjsG1718"><path id="SvgjsPath1719" d="M139.5 131L269.5 131L269.5 220L399.5 220" stroke="#323232" stroke-width="2" fill="none" marker-end="url(#SvgjsMarker1720)"></path></g><g id="SvgjsG1722"><path id="SvgjsPath1723" d="M139.5 220L269.5 220L269.5 220L399.5 220" stroke="#323232" stroke-width="2" fill="none" marker-end="url(#SvgjsMarker1724)"></path></g><g id="SvgjsG1726"><path id="SvgjsPath1727" d="M139.5 311L269.5 311L269.5 220L399.5 220" stroke="#323232" stroke-width="2" fill="none" marker-end="url(#SvgjsMarker1728)"></path></g><g id="SvgjsG1730" transform="translate(276,173)"><path id="SvgjsPath1731" d="M 0 0L 120 0L 120 39L 0 39Z" stroke="none" fill="none"></path><g id="SvgjsG1732"><text id="SvgjsText1733" font-family="微软雅黑" text-anchor="middle" font-size="13px" width="120px" fill="#323232" font-weight="400" align="middle" lineHeight="125%" anchor="middle" family="微软雅黑" size="13px" weight="400" font-style="" opacity="1" y="1.875" transform="rotate(0)"><tspan id="SvgjsTspan1734" dy="16" x="60"><tspan id="SvgjsTspan1735" style="text-decoration:;">windows通过</tspan></tspan><tspan id="SvgjsTspan1736" dy="16" x="60"><tspan id="SvgjsTspan1737" style="text-decoration:;">http/sokcs5</tspan></tspan></text></g></g><g id="SvgjsG1738" transform="translate(276,228)"><path id="SvgjsPath1739" d="M 0 0L 120 0L 120 39L 0 39Z" stroke="none" fill="none"></path><g id="SvgjsG1740"><text id="SvgjsText1741" font-family="微软雅黑" text-anchor="middle" font-size="13px" width="120px" fill="#323232" font-weight="400" align="middle" lineHeight="125%" anchor="middle" family="微软雅黑" size="13px" weight="400" font-style="" opacity="1" y="1.875" transform="rotate(0)"><tspan id="SvgjsTspan1742" dy="16" x="60"><tspan id="SvgjsTspan1743" style="text-decoration:;">linux/android可以</tspan></tspan><tspan id="SvgjsTspan1744" dy="16" x="60"><tspan id="SvgjsTspan1745" style="text-decoration:;">通过iptables</tspan></tspan></text></g></g><g id="SvgjsG1746" transform="translate(392.25,317.5)"><path id="SvgjsPath1747" d="M 0 40L 60 0L 120 40L 60 80Z" stroke="rgba(50,50,50,1)" stroke-width="2" fill-opacity="1" fill="#ffffff"></path><g id="SvgjsG1748"><text id="SvgjsText1749" font-family="微软雅黑" text-anchor="middle" font-size="13px" width="100px" fill="#323232" font-weight="400" align="middle" lineHeight="125%" anchor="middle" family="微软雅黑" size="13px" weight="400" font-style="" opacity="1" y="30.775" transform="rotate(0)"><tspan id="SvgjsTspan1750" dy="16" x="60"><tspan id="SvgjsTspan1751" style="text-decoration:;">域名是否在gfw</tspan></tspan></text></g></g><g id="SvgjsG1752"><path id="SvgjsPath1753" d="M452.25 254.65625L452.25 286.078125L452.25 286.078125L452.25 317.5" stroke="#323232" stroke-width="2" fill="none" marker-end="url(#SvgjsMarker1754)"></path></g><g id="SvgjsG1756" transform="translate(586,325.75)"><path id="SvgjsPath1757" d="M 0 0L 143 0L 143 63.5L 0 63.5Z" stroke="rgba(50,50,50,1)" stroke-width="2" fill-opacity="1" fill="#ffffff"></path><g id="SvgjsG1758"><text id="SvgjsText1759" font-family="微软雅黑" text-anchor="middle" font-size="13px" width="123px" fill="#323232" font-weight="400" align="middle" lineHeight="125%" anchor="middle" family="微软雅黑" size="13px" weight="400" font-style="" opacity="1" y="6.125" transform="rotate(0)"><tspan id="SvgjsTspan1760" dy="16" x="71.5"><tspan id="SvgjsTspan1761" style="text-decoration:;">将数据发送给</tspan></tspan><tspan id="SvgjsTspan1762" dy="16" x="71.5"><tspan id="SvgjsTspan1763" style="text-decoration:;">SocketProxy服务端</tspan></tspan><tspan id="SvgjsTspan1764" dy="16" x="71.5"><tspan id="SvgjsTspan1765" style="text-decoration:;">进行域名解析</tspan></tspan></text></g></g><g id="SvgjsG1766"><path id="SvgjsPath1767" d="M452.25 397.5L452.25 430.25L452.25 430.25L452.25 463" stroke="#323232" stroke-width="2" fill="none" marker-end="url(#SvgjsMarker1768)"></path><rect id="SvgjsRect1770" width="13" height="16" x="445.75" y="422.25" fill="#ffffff"></rect><text id="SvgjsText1771" font-family="微软雅黑" text-anchor="middle" font-size="13px" width="13px" fill="#323232" font-weight="400" align="top" lineHeight="16px" anchor="middle" family="微软雅黑" size="13px" weight="400" font-style="" opacity="1" y="420.625" transform="rotate(0)"><tspan id="SvgjsTspan1772" dy="16" x="452.25"><tspan id="SvgjsTspan1773" style="text-decoration:;">否</tspan></tspan></text></g><g id="SvgjsG1774" transform="translate(398.1875,463)"><path id="SvgjsPath1775" d="M 0 0L 108.125 0L 108.125 40L 0 40Z" stroke="rgba(50,50,50,1)" stroke-width="2" fill-opacity="1" fill="#ffffff"></path><g id="SvgjsG1776"><text id="SvgjsText1777" font-family="微软雅黑" text-anchor="middle" font-size="13px" width="89px" fill="#323232" font-weight="400" align="middle" lineHeight="125%" anchor="middle" family="微软雅黑" size="13px" weight="400" font-style="" opacity="1" y="10.375" transform="rotate(0)"><tspan id="SvgjsTspan1778" dy="16" x="54.5"><tspan id="SvgjsTspan1779" style="text-decoration:;">本地dns解析</tspan></tspan></text></g></g><g id="SvgjsG1780" transform="translate(487,582)"><path id="SvgjsPath1781" d="M 0 40L 60 0L 120 40L 60 80Z" stroke="rgba(50,50,50,1)" stroke-width="2" fill-opacity="1" fill="#ffffff"></path><g id="SvgjsG1782"><text id="SvgjsText1783" font-family="微软雅黑" text-anchor="middle" font-size="13px" width="100px" fill="#323232" font-weight="400" align="middle" lineHeight="125%" anchor="middle" family="微软雅黑" size="13px" weight="400" font-style="" opacity="1" y="30.775" transform="rotate(0)"><tspan id="SvgjsTspan1784" dy="16" x="60"><tspan id="SvgjsTspan1785" style="text-decoration:;">ip是否在国内</tspan></tspan></text></g></g><g id="SvgjsG1786"><path id="SvgjsPath1787" d="M657.5 389.25L657.5 485.625L547 485.625L547 582" stroke="#323232" stroke-width="2" fill="none" marker-end="url(#SvgjsMarker1788)"></path></g><g id="SvgjsG1790"><path id="SvgjsPath1791" d="M452.25 503L452.25 542.5L547 542.5L547 582" stroke="#323232" stroke-width="2" fill="none" marker-end="url(#SvgjsMarker1792)"></path></g><g id="SvgjsG1794"><path id="SvgjsPath1795" d="M607 622L654.5 622L654.5 622L702 622" stroke="#323232" stroke-width="2" fill="none" marker-end="url(#SvgjsMarker1796)"></path><rect id="SvgjsRect1798" width="13" height="16" x="648" y="614" fill="#ffffff"></rect><text id="SvgjsText1799" font-family="微软雅黑" text-anchor="middle" font-size="13px" width="13px" fill="#323232" font-weight="400" align="top" lineHeight="16px" anchor="middle" family="微软雅黑" size="13px" weight="400" font-style="" opacity="1" y="612.375" transform="rotate(0)"><tspan id="SvgjsTspan1800" dy="16" x="654.5"><tspan id="SvgjsTspan1801" style="text-decoration:;">是</tspan></tspan></text></g><g id="SvgjsG1802"><path id="SvgjsPath1803" d="M512.25 357.5L549.125 357.5L549.125 357.5L586 357.5" stroke="#323232" stroke-width="2" fill="none" marker-end="url(#SvgjsMarker1804)"></path><rect id="SvgjsRect1806" width="13" height="16" x="542.625" y="349.5" fill="#ffffff"></rect><text id="SvgjsText1807" font-family="微软雅黑" text-anchor="middle" font-size="13px" width="13px" fill="#323232" font-weight="400" align="top" lineHeight="16px" anchor="middle" family="微软雅黑" size="13px" weight="400" font-style="" opacity="1" y="347.875" transform="rotate(0)"><tspan id="SvgjsTspan1808" dy="16" x="549.125"><tspan id="SvgjsTspan1809" style="text-decoration:;">是</tspan></tspan></text></g><g id="SvgjsG1810"><path id="SvgjsPath1811" d="M547 662L547 692.5L547 692.5L547 723" stroke="#323232" stroke-width="2" fill="none" marker-end="url(#SvgjsMarker1812)"></path><rect id="SvgjsRect1814" width="13" height="16" x="540.5" y="684.5" fill="#ffffff"></rect><text id="SvgjsText1815" font-family="微软雅黑" text-anchor="middle" font-size="13px" width="13px" fill="#323232" font-weight="400" align="top" lineHeight="16px" anchor="middle" family="微软雅黑" size="13px" weight="400" font-style="" opacity="1" y="682.875" transform="rotate(0)"><tspan id="SvgjsTspan1816" dy="16" x="547"><tspan id="SvgjsTspan1817" style="text-decoration:;">否</tspan></tspan></text></g><g id="SvgjsG1818" transform="translate(497,723)"><path id="SvgjsPath1819" d="M 0 0L 100 0L 100 70L 0 70Z" stroke="rgba(50,50,50,1)" stroke-width="2" fill-opacity="1" fill="#ffffff"></path><g id="SvgjsG1820"><text id="SvgjsText1821" font-family="微软雅黑" text-anchor="middle" font-size="13px" width="80px" fill="#323232" font-weight="400" align="middle" lineHeight="125%" anchor="middle" family="微软雅黑" size="13px" weight="400" font-style="" opacity="1" y="9.375" transform="rotate(0)"><tspan id="SvgjsTspan1822" dy="16" x="50"><tspan id="SvgjsTspan1823" style="text-decoration:;">直接与国内服</tspan></tspan><tspan id="SvgjsTspan1824" dy="16" x="50"><tspan id="SvgjsTspan1825" style="text-decoration:;">务器建立连接</tspan></tspan><tspan id="SvgjsTspan1826" dy="16" x="50"><tspan id="SvgjsTspan1827" style="text-decoration:;">转发数据</tspan></tspan></text></g></g><g id="SvgjsG1828"><path id="SvgjsPath1829" d="M497 758L331 758L331 758L165 758" stroke="#323232" stroke-width="2" fill="none" marker-end="url(#SvgjsMarker1830)"></path></g><g id="SvgjsG1832" transform="translate(709,587)"><path id="SvgjsPath1833" d="M 0 0L 206 0L 206 70L 0 70Z" stroke="rgba(50,50,50,1)" stroke-width="2" fill-opacity="1" fill="#ffffff"></path><g id="SvgjsG1834"><text id="SvgjsText1835" font-family="微软雅黑" text-anchor="middle" font-size="13px" width="186px" fill="#323232" font-weight="400" align="middle" lineHeight="125%" anchor="middle" family="微软雅黑" size="13px" weight="400" font-style="" opacity="1" y="9.375" transform="rotate(0)"><tspan id="SvgjsTspan1836" dy="16" x="103"><tspan id="SvgjsTspan1837" style="text-decoration:;">与SocketProxy握手，将目的地</tspan></tspan><tspan id="SvgjsTspan1838" dy="16" x="103"><tspan id="SvgjsTspan1839" style="text-decoration:;">址告诉SocketProxy服务器，让</tspan></tspan><tspan id="SvgjsTspan1840" dy="16" x="103"><tspan id="SvgjsTspan1841" style="text-decoration:;">服务器去访问</tspan></tspan></text></g></g><g id="SvgjsG1842"><path id="SvgjsPath1843" d="M165 758L331 758L331 758L497 758" stroke="#323232" stroke-width="2" fill="none" marker-end="url(#SvgjsMarker1844)"></path></g><g id="SvgjsG1846"><path id="SvgjsPath1847" d="M399.5 220L269.5 220L269.5 311L139.5 311" stroke="#323232" stroke-width="2" fill="none" marker-end="url(#SvgjsMarker1848)"></path></g><g id="SvgjsG1850"><path id="SvgjsPath1851" d="M399.5 220L269.5 220L269.5 220L139.5 220" stroke="#323232" stroke-width="2" fill="none" marker-end="url(#SvgjsMarker1852)"></path></g><g id="SvgjsG1854"><path id="SvgjsPath1855" d="M399.5 220L269.5 220L269.5 131L139.5 131" stroke="#323232" stroke-width="2" fill="none" marker-end="url(#SvgjsMarker1856)"></path></g><g id="SvgjsG1858"><path id="SvgjsPath1859" d="M915 622L1027 622L1027 442.5L1139 442.5" stroke="#323232" stroke-width="2" fill="none" marker-end="url(#SvgjsMarker1860)"></path></g><g id="SvgjsG1862"><path id="SvgjsPath1863" d="M1139 442.5L1027 442.5L1027 622L915 622" stroke="#323232" stroke-width="2" fill="none" marker-end="url(#SvgjsMarker1864)"></path><rect id="SvgjsRect1866" width="379" height="64" x="837.5" y="500.25" fill="#ffffff"></rect><text id="SvgjsText1867" font-family="微软雅黑" text-anchor="start" font-size="13px" width="379px" fill="#323232" font-weight="400" align="top" lineHeight="16px" anchor="start" family="微软雅黑" size="13px" weight="400" font-style="" opacity="1" y="498.625" transform="rotate(0)"><tspan id="SvgjsTspan1868" dy="16" x="837.5"><tspan id="SvgjsTspan1869" style="text-decoration:;">1. 发送第一个字节加密方式（0 异或，1 TLS）</tspan></tspan><tspan id="SvgjsTspan1870" dy="16" x="837.5"><tspan id="SvgjsTspan1871" style="text-decoration:;">2. 校验密码（双向校验）</tspan></tspan><tspan id="SvgjsTspan1872" dy="16" x="837.5"><tspan id="SvgjsTspan1873" style="text-decoration:;">3. 发送目的地址，服务端判断是否为内网地址（内网不允许访问）</tspan></tspan><tspan id="SvgjsTspan1874" dy="16" x="837.5"><tspan id="SvgjsTspan1875" style="text-decoration:;">4. 访问目的地址，转发数据</tspan></tspan></text></g><g id="SvgjsG1876"><path id="SvgjsPath1877" d="M1239 442.5L1346.75 442.5L1346.75 354L1454.5 354" stroke="#323232" stroke-width="2" fill="none" marker-end="url(#SvgjsMarker1878)"></path></g><g id="SvgjsG1880"><path id="SvgjsPath1881" d="M1239 442.5L1346.75 442.5L1346.75 443L1454.5 443" stroke="#323232" stroke-width="2" fill="none" marker-end="url(#SvgjsMarker1882)"></path></g><g id="SvgjsG1884"><path id="SvgjsPath1885" d="M1239 442.5L1346.75 442.5L1346.75 534L1454.5 534" stroke="#323232" stroke-width="2" fill="none" marker-end="url(#SvgjsMarker1886)"></path></g></svg>