<svg id="SvgjsSvg1006" width="1589" height="936.5" xmlns="http://www.w3.org/2000/svg" version="1.1" xmlns:xlink="http://www.w3.org/1999/xlink" xmlns:svgjs="http://svgjs.com/svgjs"><defs id="SvgjsDefs1007"><marker id="SvgjsMarker1132" markerWidth="16" markerHeight="12" refX="16" refY="6" viewBox="0 0 16 12" orient="auto" markerUnits="userSpaceOnUse" stroke-dasharray="0,0"><path id="SvgjsPath1133" d="M0,2 L14,6 L0,11 L0,2" fill="#323232" stroke="#323232" stroke-width="2"></path></marker><marker id="SvgjsMarker1136" markerWidth="16" markerHeight="12" refX="16" refY="6" viewBox="0 0 16 12" orient="auto" markerUnits="userSpaceOnUse" stroke-dasharray="0,0"><path id="SvgjsPath1137" d="M0,2 L14,6 L0,11 L0,2" fill="#323232" stroke="#323232" stroke-width="2"></path></marker><marker id="SvgjsMarker1162" markerWidth="16" markerHeight="12" refX="16" refY="6" viewBox="0 0 16 12" orient="auto" markerUnits="userSpaceOnUse" stroke-dasharray="0,0"><path id="SvgjsPath1163" d="M0,2 L14,6 L0,11 L0,2" fill="#323232" stroke="#323232" stroke-width="2"></path></marker><marker id="SvgjsMarker1176" markerWidth="16" markerHeight="12" refX="16" refY="6" viewBox="0 0 16 12" orient="auto" markerUnits="userSpaceOnUse" stroke-dasharray="0,0"><path id="SvgjsPath1177" d="M0,2 L14,6 L0,11 L0,2" fill="#323232" stroke="#323232" stroke-width="2"></path></marker><marker id="SvgjsMarker1196" markerWidth="16" markerHeight="12" refX="16" refY="6" viewBox="0 0 16 12" orient="auto" markerUnits="userSpaceOnUse" stroke-dasharray="0,0"><path id="SvgjsPath1197" d="M0,2 L14,6 L0,11 L0,2" fill="#323232" stroke="#323232" stroke-width="2"></path></marker><marker id="SvgjsMarker1200" markerWidth="16" markerHeight="12" refX="16" refY="6" viewBox="0 0 16 12" orient="auto" markerUnits="userSpaceOnUse" stroke-dasharray="0,0"><path id="SvgjsPath1201" d="M0,2 L14,6 L0,11 L0,2" fill="#323232" stroke="#323232" stroke-width="2"></path></marker><marker id="SvgjsMarker1204" markerWidth="16" markerHeight="12" refX="16" refY="6" viewBox="0 0 16 12" orient="auto" markerUnits="userSpaceOnUse" stroke-dasharray="0,0"><path id="SvgjsPath1205" d="M0,2 L14,6 L0,11 L0,2" fill="#323232" stroke="#323232" stroke-width="2"></path></marker><marker id="SvgjsMarker1212" markerWidth="16" markerHeight="12" refX="16" refY="6" viewBox="0 0 16 12" orient="auto" markerUnits="userSpaceOnUse" stroke-dasharray="0,0"><path id="SvgjsPath1213" d="M0,2 L14,6 L0,11 L0,2" fill="#323232" stroke="#323232" stroke-width="2"></path></marker><marker id="SvgjsMarker1220" markerWidth="16" markerHeight="12" refX="16" refY="6" viewBox="0 0 16 12" orient="auto" markerUnits="userSpaceOnUse" stroke-dasharray="0,0"><path id="SvgjsPath1221" d="M0,2 L14,6 L0,11 L0,2" fill="#323232" stroke="#323232" stroke-width="2"></path></marker><marker id="SvgjsMarker1248" markerWidth="16" markerHeight="12" refX="16" refY="6" viewBox="0 0 16 12" orient="auto" markerUnits="userSpaceOnUse" stroke-dasharray="0,0"><path id="SvgjsPath1249" d="M0,2 L14,6 L0,11 L0,2" fill="#323232" stroke="#323232" stroke-width="2"></path></marker><marker id="SvgjsMarker1252" markerWidth="16" markerHeight="12" refX="16" refY="6" viewBox="0 0 16 12" orient="auto" markerUnits="userSpaceOnUse" stroke-dasharray="0,0"><path id="SvgjsPath1253" d="M0,2 L14,6 L0,11 L0,2" fill="#323232" stroke="#323232" stroke-width="2"></path></marker><marker id="SvgjsMarker1256" markerWidth="16" markerHeight="12" refX="16" refY="6" viewBox="0 0 16 12" orient="auto" markerUnits="userSpaceOnUse" stroke-dasharray="0,0"><path id="SvgjsPath1257" d="M0,2 L14,6 L0,11 L0,2" fill="#323232" stroke="#323232" stroke-width="2"></path></marker><marker id="SvgjsMarker1260" markerWidth="16" markerHeight="12" refX="16" refY="6" viewBox="0 0 16 12" orient="auto" markerUnits="userSpaceOnUse" stroke-dasharray="0,0"><path id="SvgjsPath1261" d="M0,2 L14,6 L0,11 L0,2" fill="#323232" stroke="#323232" stroke-width="2"></path></marker><marker id="SvgjsMarker1264" markerWidth="16" markerHeight="12" refX="16" refY="6" viewBox="0 0 16 12" orient="auto" markerUnits="userSpaceOnUse" stroke-dasharray="0,0"><path id="SvgjsPath1265" d="M0,2 L14,6 L0,11 L0,2" fill="#323232" stroke="#323232" stroke-width="2"></path></marker><marker id="SvgjsMarker1278" markerWidth="16" markerHeight="12" refX="16" refY="6" viewBox="0 0 16 12" orient="auto" markerUnits="userSpaceOnUse" stroke-dasharray="0,0"><path id="SvgjsPath1279" d="M0,2 L14,6 L0,11 L0,2" fill="#323232" stroke="#323232" stroke-width="2"></path></marker><marker id="SvgjsMarker1282" markerWidth="16" markerHeight="12" refX="16" refY="6" viewBox="0 0 16 12" orient="auto" markerUnits="userSpaceOnUse" stroke-dasharray="0,0"><path id="SvgjsPath1283" d="M0,2 L14,6 L0,11 L0,2" fill="#323232" stroke="#323232" stroke-width="2"></path></marker><marker id="SvgjsMarker1286" markerWidth="16" markerHeight="12" refX="16" refY="6" viewBox="0 0 16 12" orient="auto" markerUnits="userSpaceOnUse" stroke-dasharray="0,0"><path id="SvgjsPath1287" d="M0,2 L14,6 L0,11 L0,2" fill="#323232" stroke="#323232" stroke-width="2"></path></marker><marker id="SvgjsMarker1290" markerWidth="16" markerHeight="12" refX="16" refY="6" viewBox="0 0 16 12" orient="auto" markerUnits="userSpaceOnUse" stroke-dasharray="0,0"><path id="SvgjsPath1291" d="M0,2 L14,6 L0,11 L0,2" fill="#323232" stroke="#323232" stroke-width="2"></path></marker><marker id="SvgjsMarker1294" markerWidth="16" markerHeight="12" refX="16" refY="6" viewBox="0 0 16 12" orient="auto" markerUnits="userSpaceOnUse" stroke-dasharray="0,0"><path id="SvgjsPath1295" d="M0,2 L14,6 L0,11 L0,2" fill="#323232" stroke="#323232" stroke-width="2"></path></marker><marker id="SvgjsMarker1298" markerWidth="16" markerHeight="12" refX="16" refY="6" viewBox="0 0 16 12" orient="auto" markerUnits="userSpaceOnUse" stroke-dasharray="0,0"><path id="SvgjsPath1299" d="M0,2 L14,6 L0,11 L0,2" fill="#323232" stroke="#323232" stroke-width="2"></path></marker><marker id="SvgjsMarker1302" markerWidth="16" markerHeight="12" refX="16" refY="6" viewBox="0 0 16 12" orient="auto" markerUnits="userSpaceOnUse" stroke-dasharray="0,0"><path id="SvgjsPath1303" d="M0,2 L14,6 L0,11 L0,2" fill="#323232" stroke="#323232" stroke-width="2"></path></marker><marker id="SvgjsMarker1306" markerWidth="16" markerHeight="12" refX="16" refY="6" viewBox="0 0 16 12" orient="auto" markerUnits="userSpaceOnUse" stroke-dasharray="0,0"><path id="SvgjsPath1307" d="M0,2 L14,6 L0,11 L0,2" fill="#323232" stroke="#323232" stroke-width="2"></path></marker><marker id="SvgjsMarker1310" markerWidth="16" markerHeight="12" refX="16" refY="6" viewBox="0 0 16 12" orient="auto" markerUnits="userSpaceOnUse" stroke-dasharray="0,0"><path id="SvgjsPath1311" d="M0,2 L14,6 L0,11 L0,2" fill="#323232" stroke="#323232" stroke-width="2"></path></marker><marker id="SvgjsMarker1314" markerWidth="16" markerHeight="12" refX="16" refY="6" viewBox="0 0 16 12" orient="auto" markerUnits="userSpaceOnUse" stroke-dasharray="0,0"><path id="SvgjsPath1315" d="M0,2 L14,6 L0,11 L0,2" fill="#323232" stroke="#323232" stroke-width="2"></path></marker><marker id="SvgjsMarker1318" markerWidth="16" markerHeight="12" refX="16" refY="6" viewBox="0 0 16 12" orient="auto" markerUnits="userSpaceOnUse" stroke-dasharray="0,0"><path id="SvgjsPath1319" d="M0,2 L14,6 L0,11 L0,2" fill="#323232" stroke="#323232" stroke-width="2"></path></marker><marker id="SvgjsMarker1322" markerWidth="16" markerHeight="12" refX="16" refY="6" viewBox="0 0 16 12" orient="auto" markerUnits="userSpaceOnUse" stroke-dasharray="0,0"><path id="SvgjsPath1323" d="M0,2 L14,6 L0,11 L0,2" fill="#323232" stroke="#323232" stroke-width="2"></path></marker><marker id="SvgjsMarker1326" markerWidth="16" markerHeight="12" refX="16" refY="6" viewBox="0 0 16 12" orient="auto" markerUnits="userSpaceOnUse" stroke-dasharray="0,0"><path id="SvgjsPath1327" d="M0,2 L14,6 L0,11 L0,2" fill="#323232" stroke="#323232" stroke-width="2"></path></marker><marker id="SvgjsMarker1330" markerWidth="16" markerHeight="12" refX="16" refY="6" viewBox="0 0 16 12" orient="auto" markerUnits="userSpaceOnUse" stroke-dasharray="0,0"><path id="SvgjsPath1331" d="M0,2 L14,6 L0,11 L0,2" fill="#323232" stroke="#323232" stroke-width="2"></path></marker></defs><g id="SvgjsG1008" transform="translate(342.5,296)"><path id="SvgjsPath1009" d="M 0 4Q 0 0 4 0L 589 0Q 593 0 593 4L 593 529Q 593 533 589 533L 4 533Q 0 533 0 529Z" stroke="rgba(50,50,50,1)" stroke-width="2" fill-opacity="1" fill="#ffffff"></path><g id="SvgjsG1010"><text id="SvgjsText1011" font-family="微软雅黑" text-anchor="middle" font-size="13px" width="573px" fill="#323232" font-weight="400" align="middle" lineHeight="125%" anchor="middle" family="微软雅黑" size="13px" weight="400" font-style="" opacity="1" y="256.875" transform="rotate(0)"></text></g></g><g id="SvgjsG1012" transform="translate(25,69.5)"><path id="SvgjsPath1013" d="M 0 0L 141 0L 141 303L 0 303Z" stroke="rgba(50,50,50,1)" stroke-width="2" fill-opacity="1" fill="#ffffff"></path><g id="SvgjsG1014"><text id="SvgjsText1015" font-family="微软雅黑" text-anchor="middle" font-size="14px" width="121px" fill="#323232" font-weight="400" align="middle" lineHeight="125%" anchor="middle" family="微软雅黑" size="14px" weight="400" font-style="" opacity="1" y="141.25" transform="rotate(0)"></text></g></g><g id="SvgjsG1016" transform="translate(55,115)"><path id="SvgjsPath1017" d="M 0 0L 81 0L 81 34L 0 34Z" stroke="rgba(50,50,50,1)" stroke-width="2" fill-opacity="1" fill="#ffffff"></path><g id="SvgjsG1018"><text id="SvgjsText1019" font-family="微软雅黑" text-anchor="middle" font-size="13px" width="61px" fill="#323232" font-weight="400" align="middle" lineHeight="125%" anchor="middle" family="微软雅黑" size="13px" weight="400" font-style="" opacity="1" y="7.375" transform="rotate(0)"><tspan id="SvgjsTspan1020" dy="16" x="40.5"><tspan id="SvgjsTspan1021" style="text-decoration:;">浏览器</tspan></tspan></text></g></g><g id="SvgjsG1022" transform="translate(55,204)"><path id="SvgjsPath1023" d="M 0 0L 81 0L 81 34L 0 34Z" stroke="rgba(50,50,50,1)" stroke-width="2" fill-opacity="1" fill="#ffffff"></path><g id="SvgjsG1024"><text id="SvgjsText1025" font-family="微软雅黑" text-anchor="middle" font-size="13px" width="61px" fill="#323232" font-weight="400" align="middle" lineHeight="125%" anchor="middle" family="微软雅黑" size="13px" weight="400" font-style="" opacity="1" y="7.375" transform="rotate(0)"><tspan id="SvgjsTspan1026" dy="16" x="40.5"><tspan id="SvgjsTspan1027" style="text-decoration:;">QQ</tspan></tspan></text></g></g><g id="SvgjsG1028" transform="translate(55,295)"><path id="SvgjsPath1029" d="M 0 0L 81 0L 81 34L 0 34Z" stroke="rgba(50,50,50,1)" stroke-width="2" fill-opacity="1" fill="#ffffff"></path><g id="SvgjsG1030"><text id="SvgjsText1031" font-family="微软雅黑" text-anchor="middle" font-size="13px" width="61px" fill="#323232" font-weight="400" align="middle" lineHeight="125%" anchor="middle" family="微软雅黑" size="13px" weight="400" font-style="" opacity="1" y="7.375" transform="rotate(0)"><tspan id="SvgjsTspan1032" dy="16" x="40.5"><tspan id="SvgjsTspan1033" style="text-decoration:;">微信</tspan></tspan></text></g></g><g id="SvgjsG1034" transform="translate(35.5,25)"><path id="SvgjsPath1035" d="M 0 0L 120 0L 120 40L 0 40Z" stroke="none" fill="none"></path><g id="SvgjsG1036"><text id="SvgjsText1037" font-family="微软雅黑" text-anchor="middle" font-size="14px" width="120px" fill="#323232" font-weight="400" align="middle" lineHeight="125%" anchor="middle" family="微软雅黑" size="14px" weight="400" font-style="" opacity="1" y="9.75" transform="rotate(0)"><tspan id="SvgjsTspan1038" dy="17" x="60"><tspan id="SvgjsTspan1039" style="text-decoration:;">本地应用</tspan></tspan></text></g></g><g id="SvgjsG1040" transform="translate(397,186)"><path id="SvgjsPath1041" d="M 0 0L 107 0L 107 70L 0 70Z" stroke="rgba(50,50,50,1)" stroke-width="2" fill-opacity="1" fill="#ffffff"></path><g id="SvgjsG1042"><text id="SvgjsText1043" font-family="微软雅黑" text-anchor="middle" font-size="13px" width="87px" fill="#323232" font-weight="400" align="middle" lineHeight="125%" anchor="middle" family="微软雅黑" size="13px" weight="400" font-style="" opacity="1" y="17.375" transform="rotate(0)"><tspan id="SvgjsTspan1044" dy="16" x="53.5"><tspan id="SvgjsTspan1045" style="text-decoration:;">SocketProxy</tspan></tspan><tspan id="SvgjsTspan1046" dy="16" x="53.5"><tspan id="SvgjsTspan1047" style="text-decoration:;">客户端</tspan></tspan></text></g></g><g id="SvgjsG1048" transform="translate(1136.5,409)"><path id="SvgjsPath1049" d="M 0 0L 100 0L 100 70L 0 70Z" stroke="rgba(50,50,50,1)" stroke-width="2" fill-opacity="1" fill="#ffffff"></path><g id="SvgjsG1050"><text id="SvgjsText1051" font-family="微软雅黑" text-anchor="middle" font-size="13px" width="80px" fill="#323232" font-weight="400" align="middle" lineHeight="125%" anchor="middle" family="微软雅黑" size="13px" weight="400" font-style="" opacity="1" y="17.375" transform="rotate(0)"><tspan id="SvgjsTspan1052" dy="16" x="50"><tspan id="SvgjsTspan1053" style="text-decoration:;">SocketProxy</tspan></tspan><tspan id="SvgjsTspan1054" dy="16" x="50"><tspan id="SvgjsTspan1055" style="text-decoration:;">服务器</tspan></tspan></text></g></g><g id="SvgjsG1056" transform="translate(1423,292.5)"><path id="SvgjsPath1057" d="M 0 0L 141 0L 141 303L 0 303Z" stroke="rgba(50,50,50,1)" stroke-width="2" fill-opacity="1" fill="#ffffff"></path><g id="SvgjsG1058"><text id="SvgjsText1059" font-family="微软雅黑" text-anchor="middle" font-size="14px" width="121px" fill="#323232" font-weight="400" align="middle" lineHeight="125%" anchor="middle" family="微软雅黑" size="14px" weight="400" font-style="" opacity="1" y="141.25" transform="rotate(0)"></text></g></g><g id="SvgjsG1060" transform="translate(1453,340)"><path id="SvgjsPath1061" d="M 0 0L 81 0L 81 34L 0 34Z" stroke="rgba(50,50,50,1)" stroke-width="2" fill-opacity="1" fill="#ffffff"></path><g id="SvgjsG1062"><text id="SvgjsText1063" font-family="微软雅黑" text-anchor="middle" font-size="13px" width="61px" fill="#323232" font-weight="400" align="middle" lineHeight="125%" anchor="middle" family="微软雅黑" size="13px" weight="400" font-style="" opacity="1" y="7.375" transform="rotate(0)"><tspan id="SvgjsTspan1064" dy="16" x="40.5"><tspan id="SvgjsTspan1065" style="text-decoration:;">谷歌</tspan></tspan></text></g></g><g id="SvgjsG1066" transform="translate(1433.5,248)"><path id="SvgjsPath1067" d="M 0 0L 120 0L 120 40L 0 40Z" stroke="none" fill="none"></path><g id="SvgjsG1068"><text id="SvgjsText1069" font-family="微软雅黑" text-anchor="middle" font-size="14px" width="120px" fill="#323232" font-weight="400" align="middle" lineHeight="125%" anchor="middle" family="微软雅黑" size="14px" weight="400" font-style="" opacity="1" y="9.75" transform="rotate(0)"><tspan id="SvgjsTspan1070" dy="17" x="60"><tspan id="SvgjsTspan1071" style="text-decoration:;">国外服务器</tspan></tspan></text></g></g><g id="SvgjsG1072" transform="translate(1453,427)"><path id="SvgjsPath1073" d="M 0 0L 81 0L 81 34L 0 34Z" stroke="rgba(50,50,50,1)" stroke-width="2" fill-opacity="1" fill="#ffffff"></path><g id="SvgjsG1074"><text id="SvgjsText1075" font-family="微软雅黑" text-anchor="middle" font-size="13px" width="61px" fill="#323232" font-weight="400" align="middle" lineHeight="125%" anchor="middle" family="微软雅黑" size="13px" weight="400" font-style="" opacity="1" y="7.375" transform="rotate(0)"><tspan id="SvgjsTspan1076" dy="16" x="40.5"><tspan id="SvgjsTspan1077" style="text-decoration:;">github</tspan></tspan></text></g></g><g id="SvgjsG1078" transform="translate(1453,518)"><path id="SvgjsPath1079" d="M 0 0L 81 0L 81 34L 0 34Z" stroke="rgba(50,50,50,1)" stroke-width="2" fill-opacity="1" fill="#ffffff"></path><g id="SvgjsG1080"><text id="SvgjsText1081" font-family="微软雅黑" text-anchor="middle" font-size="13px" width="61px" fill="#323232" font-weight="400" align="middle" lineHeight="125%" anchor="middle" family="微软雅黑" size="13px" weight="400" font-style="" opacity="1" y="7.375" transform="rotate(0)"><tspan id="SvgjsTspan1082" dy="16" x="40.5"><tspan id="SvgjsTspan1083" style="text-decoration:;">facebook</tspan></tspan></text></g></g><g id="SvgjsG1084" transform="translate(25,608.5)"><path id="SvgjsPath1085" d="M 0 0L 141 0L 141 303L 0 303Z" stroke="rgba(50,50,50,1)" stroke-width="2" fill-opacity="1" fill="#ffffff"></path><g id="SvgjsG1086"><text id="SvgjsText1087" font-family="微软雅黑" text-anchor="middle" font-size="14px" width="121px" fill="#323232" font-weight="400" align="middle" lineHeight="125%" anchor="middle" family="微软雅黑" size="14px" weight="400" font-style="" opacity="1" y="141.25" transform="rotate(0)"></text></g></g><g id="SvgjsG1088" transform="translate(55,655)"><path id="SvgjsPath1089" d="M 0 0L 81 0L 81 34L 0 34Z" stroke="rgba(50,50,50,1)" stroke-width="2" fill-opacity="1" fill="#ffffff"></path><g id="SvgjsG1090"><text id="SvgjsText1091" font-family="微软雅黑" text-anchor="middle" font-size="13px" width="61px" fill="#323232" font-weight="400" align="middle" lineHeight="125%" anchor="middle" family="微软雅黑" size="13px" weight="400" font-style="" opacity="1" y="7.375" transform="rotate(0)"><tspan id="SvgjsTspan1092" dy="16" x="40.5"><tspan id="SvgjsTspan1093" style="text-decoration:;">腾讯</tspan></tspan></text></g></g><g id="SvgjsG1094" transform="translate(35.5,562.5)"><path id="SvgjsPath1095" d="M 0 0L 120 0L 120 40L 0 40Z" stroke="none" fill="none"></path><g id="SvgjsG1096"><text id="SvgjsText1097" font-family="微软雅黑" text-anchor="middle" font-size="14px" width="120px" fill="#323232" font-weight="400" align="middle" lineHeight="125%" anchor="middle" family="微软雅黑" size="14px" weight="400" font-style="" opacity="1" y="9.75" transform="rotate(0)"><tspan id="SvgjsTspan1098" dy="17" x="60"><tspan id="SvgjsTspan1099" style="text-decoration:;">国内服务器</tspan></tspan></text></g></g><g id="SvgjsG1100" transform="translate(55,743)"><path id="SvgjsPath1101" d="M 0 0L 81 0L 81 34L 0 34Z" stroke="rgba(50,50,50,1)" stroke-width="2" fill-opacity="1" fill="#ffffff"></path><g id="SvgjsG1102"><text id="SvgjsText1103" font-family="微软雅黑" text-anchor="middle" font-size="13px" width="61px" fill="#323232" font-weight="400" align="middle" lineHeight="125%" anchor="middle" family="微软雅黑" size="13px" weight="400" font-style="" opacity="1" y="7.375" transform="rotate(0)"><tspan id="SvgjsTspan1104" dy="16" x="40.5"><tspan id="SvgjsTspan1105" style="text-decoration:;">百度</tspan></tspan></text></g></g><g id="SvgjsG1106" transform="translate(55,835)"><path id="SvgjsPath1107" d="M 0 0L 81 0L 81 34L 0 34Z" stroke="rgba(50,50,50,1)" stroke-width="2" fill-opacity="1" fill="#ffffff"></path><g id="SvgjsG1108"><text id="SvgjsText1109" font-family="微软雅黑" text-anchor="middle" font-size="13px" width="61px" fill="#323232" font-weight="400" align="middle" lineHeight="125%" anchor="middle" family="微软雅黑" size="13px" weight="400" font-style="" opacity="1" y="7.375" transform="rotate(0)"><tspan id="SvgjsTspan1110" dy="16" x="40.5"><tspan id="SvgjsTspan1111" style="text-decoration:;">bilibili</tspan></tspan></text></g></g><g id="SvgjsG1112" transform="translate(397,56)"><path id="SvgjsPath1113" d="M 0 0L 1116.5 0L 1116.5 148L 0 148Z" stroke="none" fill="none"></path><g id="SvgjsG1114"><text id="SvgjsText1115" font-family="微软雅黑" text-anchor="start" font-size="14px" width="1117px" fill="#323232" font-weight="400" align="middle" lineHeight="125%" anchor="start" family="微软雅黑" size="14px" weight="400" font-style="" opacity="1" y="12.75" transform="rotate(0)"><tspan id="SvgjsTspan1116" dy="17" x="0"><tspan id="SvgjsTspan1117" style="text-decoration:;">1. 监听本地TCP地址</tspan></tspan><tspan id="SvgjsTspan1118" dy="17" x="0"><tspan id="SvgjsTspan1119" style="text-decoration:;">2. 让本地应用连接客户端（windows可以设置系统代理，通过http/socks5的方式让本地应用连接客户端）</tspan></tspan><tspan id="SvgjsTspan1120" dy="17" x="0"><tspan id="SvgjsTspan1121" style="text-decoration:;">3. 客户端解析本地应用请求的http/socks5数据，获取访问的目的地址</tspan></tspan><tspan id="SvgjsTspan1122" dy="17" x="0"><tspan id="SvgjsTspan1123" style="text-decoration:;">4. 解析域名，如果域名在gfw列表，则通过 SocketProxy服务器解析域名</tspan></tspan><tspan id="SvgjsTspan1124" dy="17" x="0"><tspan id="SvgjsTspan1125" style="text-decoration:;">5. 解析域名之后获取ip，判断ip是否在国内</tspan></tspan><tspan id="SvgjsTspan1126" dy="17" x="0"><tspan id="SvgjsTspan1127" style="text-decoration:;">6. ip在国内，客户端直接与国内服务器建立连接，转发数据；ip在国外，与SocketProxy服务器建立连接，然后将数据发送给SocketProxy服务器转发数据</tspan></tspan><tspan id="SvgjsTspan1128" dy="17" x="0"><tspan id="SvgjsTspan1129" style="text-decoration:;"> </tspan></tspan></text></g></g><g id="SvgjsG1130"><path id="SvgjsPath1131" d="M136 132L267 132L267 221L397 221" stroke="#323232" stroke-width="2" fill="none" marker-end="url(#SvgjsMarker1132)"></path></g><g id="SvgjsG1134"><path id="SvgjsPath1135" d="M136 312L267 312L267 221L397 221" stroke="#323232" stroke-width="2" fill="none" marker-end="url(#SvgjsMarker1136)"></path></g><g id="SvgjsG1138" transform="translate(273.5,173)"><path id="SvgjsPath1139" d="M 0 0L 120 0L 120 34L 0 34Z" stroke="none" fill="none"></path><g id="SvgjsG1140"><text id="SvgjsText1141" font-family="微软雅黑" text-anchor="middle" font-size="14px" width="120px" fill="#323232" font-weight="400" align="middle" lineHeight="125%" anchor="middle" family="微软雅黑" size="14px" weight="400" font-style="" opacity="1" y="-1.75" transform="rotate(0)"><tspan id="SvgjsTspan1142" dy="17" x="60"><tspan id="SvgjsTspan1143" style="text-decoration:;">windows通过</tspan></tspan><tspan id="SvgjsTspan1144" dy="17" x="60"><tspan id="SvgjsTspan1145" style="text-decoration:;">http/sokcs5</tspan></tspan></text></g></g><g id="SvgjsG1146" transform="translate(273.5,228)"><path id="SvgjsPath1147" d="M 0 0L 120 0L 120 34L 0 34Z" stroke="none" fill="none"></path><g id="SvgjsG1148"><text id="SvgjsText1149" font-family="微软雅黑" text-anchor="middle" font-size="14px" width="120px" fill="#323232" font-weight="400" align="middle" lineHeight="125%" anchor="middle" family="微软雅黑" size="14px" weight="400" font-style="" opacity="1" y="-1.75" transform="rotate(0)"><tspan id="SvgjsTspan1150" dy="17" x="60"><tspan id="SvgjsTspan1151" style="text-decoration:;">linux/android可以</tspan></tspan><tspan id="SvgjsTspan1152" dy="17" x="60"><tspan id="SvgjsTspan1153" style="text-decoration:;">通过iptables</tspan></tspan></text></g></g><g id="SvgjsG1154" transform="translate(390.5,317)"><path id="SvgjsPath1155" d="M 0 40L 60 0L 120 40L 60 80Z" stroke="rgba(50,50,50,1)" stroke-width="2" fill-opacity="1" fill="#ffffff"></path><g id="SvgjsG1156"><text id="SvgjsText1157" font-family="微软雅黑" text-anchor="middle" font-size="13px" width="100px" fill="#323232" font-weight="400" align="middle" lineHeight="125%" anchor="middle" family="微软雅黑" size="13px" weight="400" font-style="" opacity="1" y="30.775" transform="rotate(0)"><tspan id="SvgjsTspan1158" dy="16" x="60"><tspan id="SvgjsTspan1159" style="text-decoration:;">域名是否在gfw</tspan></tspan></text></g></g><g id="SvgjsG1160"><path id="SvgjsPath1161" d="M450.5 256L450.5 286.078125L450.5 286.078125L450.5 317" stroke="#323232" stroke-width="2" fill="none" marker-end="url(#SvgjsMarker1162)"></path></g><g id="SvgjsG1164" transform="translate(582.5,325.25)"><path id="SvgjsPath1165" d="M 0 0L 141 0L 141 63.5L 0 63.5Z" stroke="rgba(50,50,50,1)" stroke-width="2" fill-opacity="1" fill="#ffffff"></path><g id="SvgjsG1166"><text id="SvgjsText1167" font-family="微软雅黑" text-anchor="middle" font-size="13px" width="121px" fill="#323232" font-weight="400" align="middle" lineHeight="125%" anchor="middle" family="微软雅黑" size="13px" weight="400" font-style="" opacity="1" y="6.125" transform="rotate(0)"><tspan id="SvgjsTspan1168" dy="16" x="70.5"><tspan id="SvgjsTspan1169" style="text-decoration:;">将数据发送给</tspan></tspan><tspan id="SvgjsTspan1170" dy="16" x="70.5"><tspan id="SvgjsTspan1171" style="text-decoration:;">SocketProxy服务端</tspan></tspan><tspan id="SvgjsTspan1172" dy="16" x="70.5"><tspan id="SvgjsTspan1173" style="text-decoration:;">进行域名解析</tspan></tspan></text></g></g><g id="SvgjsG1174"><path id="SvgjsPath1175" d="M450.5 397L450.5 430.25L450.5 430.25L450.5 463" stroke="#323232" stroke-width="2" fill="none" marker-end="url(#SvgjsMarker1176)"></path><rect id="SvgjsRect1178" width="13" height="16" x="444" y="422" fill="#ffffff"></rect><text id="SvgjsText1179" font-family="微软雅黑" text-anchor="middle" font-size="13px" width="13px" fill="#323232" font-weight="400" align="top" lineHeight="16px" anchor="middle" family="微软雅黑" size="13px" weight="400" font-style="" opacity="1" y="420.375" transform="rotate(0)"><tspan id="SvgjsTspan1180" dy="16" x="450.5"><tspan id="SvgjsTspan1181" style="text-decoration:;">否</tspan></tspan></text></g><g id="SvgjsG1182" transform="translate(397,463)"><path id="SvgjsPath1183" d="M 0 0L 107 0L 107 40L 0 40Z" stroke="rgba(50,50,50,1)" stroke-width="2" fill-opacity="1" fill="#ffffff"></path><g id="SvgjsG1184"><text id="SvgjsText1185" font-family="微软雅黑" text-anchor="middle" font-size="13px" width="87px" fill="#323232" font-weight="400" align="middle" lineHeight="125%" anchor="middle" family="微软雅黑" size="13px" weight="400" font-style="" opacity="1" y="10.375" transform="rotate(0)"><tspan id="SvgjsTspan1186" dy="16" x="53.5"><tspan id="SvgjsTspan1187" style="text-decoration:;">本地dns解析</tspan></tspan></text></g></g><g id="SvgjsG1188" transform="translate(484.5,582)"><path id="SvgjsPath1189" d="M 0 40L 60 0L 120 40L 60 80Z" stroke="rgba(50,50,50,1)" stroke-width="2" fill-opacity="1" fill="#ffffff"></path><g id="SvgjsG1190"><text id="SvgjsText1191" font-family="微软雅黑" text-anchor="middle" font-size="13px" width="100px" fill="#323232" font-weight="400" align="middle" lineHeight="125%" anchor="middle" family="微软雅黑" size="13px" weight="400" font-style="" opacity="1" y="30.775" transform="rotate(0)"><tspan id="SvgjsTspan1192" dy="16" x="60"><tspan id="SvgjsTspan1193" style="text-decoration:;">ip是否在国内</tspan></tspan></text></g></g><g id="SvgjsG1194"><path id="SvgjsPath1195" d="M653 388.75L653 485.375L544.5 485.375L544.5 582" stroke="#323232" stroke-width="2" fill="none" marker-end="url(#SvgjsMarker1196)"></path></g><g id="SvgjsG1198"><path id="SvgjsPath1199" d="M450.5 503L450.5 542.5L544.5 542.5L544.5 582" stroke="#323232" stroke-width="2" fill="none" marker-end="url(#SvgjsMarker1200)"></path></g><g id="SvgjsG1202"><path id="SvgjsPath1203" d="M604.5 622L652 622L652 622L699.5 622" stroke="#323232" stroke-width="2" fill="none" marker-end="url(#SvgjsMarker1204)"></path><rect id="SvgjsRect1206" width="13" height="16" x="645.5" y="614" fill="#ffffff"></rect><text id="SvgjsText1207" font-family="微软雅黑" text-anchor="middle" font-size="13px" width="13px" fill="#323232" font-weight="400" align="top" lineHeight="16px" anchor="middle" family="微软雅黑" size="13px" weight="400" font-style="" opacity="1" y="612.375" transform="rotate(0)"><tspan id="SvgjsTspan1208" dy="16" x="652"><tspan id="SvgjsTspan1209" style="text-decoration:;">否</tspan></tspan></text></g><g id="SvgjsG1210"><path id="SvgjsPath1211" d="M510.5 357L546.5 357L546.5 357L582.5 357" stroke="#323232" stroke-width="2" fill="none" marker-end="url(#SvgjsMarker1212)"></path><rect id="SvgjsRect1214" width="13" height="16" x="540" y="349" fill="#ffffff"></rect><text id="SvgjsText1215" font-family="微软雅黑" text-anchor="middle" font-size="13px" width="13px" fill="#323232" font-weight="400" align="top" lineHeight="16px" anchor="middle" family="微软雅黑" size="13px" weight="400" font-style="" opacity="1" y="347.375" transform="rotate(0)"><tspan id="SvgjsTspan1216" dy="16" x="546.5"><tspan id="SvgjsTspan1217" style="text-decoration:;">是</tspan></tspan></text></g><g id="SvgjsG1218"><path id="SvgjsPath1219" d="M544.5 662L544.5 692.5L544.5 692.5L544.5 725" stroke="#323232" stroke-width="2" fill="none" marker-end="url(#SvgjsMarker1220)"></path><rect id="SvgjsRect1222" width="13" height="16" x="538" y="685.5" fill="#ffffff"></rect><text id="SvgjsText1223" font-family="微软雅黑" text-anchor="middle" font-size="13px" width="13px" fill="#323232" font-weight="400" align="top" lineHeight="16px" anchor="middle" family="微软雅黑" size="13px" weight="400" font-style="" opacity="1" y="683.875" transform="rotate(0)"><tspan id="SvgjsTspan1224" dy="16" x="544.5"><tspan id="SvgjsTspan1225" style="text-decoration:;">是</tspan></tspan></text></g><g id="SvgjsG1226" transform="translate(494.5,725)"><path id="SvgjsPath1227" d="M 0 0L 100 0L 100 70L 0 70Z" stroke="rgba(50,50,50,1)" stroke-width="2" fill-opacity="1" fill="#ffffff"></path><g id="SvgjsG1228"><text id="SvgjsText1229" font-family="微软雅黑" text-anchor="middle" font-size="13px" width="80px" fill="#323232" font-weight="400" align="middle" lineHeight="125%" anchor="middle" family="微软雅黑" size="13px" weight="400" font-style="" opacity="1" y="9.375" transform="rotate(0)"><tspan id="SvgjsTspan1230" dy="16" x="50"><tspan id="SvgjsTspan1231" style="text-decoration:;">直接与国内服</tspan></tspan><tspan id="SvgjsTspan1232" dy="16" x="50"><tspan id="SvgjsTspan1233" style="text-decoration:;">务器建立连接</tspan></tspan><tspan id="SvgjsTspan1234" dy="16" x="50"><tspan id="SvgjsTspan1235" style="text-decoration:;">转发数据</tspan></tspan></text></g></g><g id="SvgjsG1236" transform="translate(706.5,587)"><path id="SvgjsPath1237" d="M 0 0L 206 0L 206 70L 0 70Z" stroke="rgba(50,50,50,1)" stroke-width="2" fill-opacity="1" fill="#ffffff"></path><g id="SvgjsG1238"><text id="SvgjsText1239" font-family="微软雅黑" text-anchor="middle" font-size="13px" width="186px" fill="#323232" font-weight="400" align="middle" lineHeight="125%" anchor="middle" family="微软雅黑" size="13px" weight="400" font-style="" opacity="1" y="9.375" transform="rotate(0)"><tspan id="SvgjsTspan1240" dy="16" x="103"><tspan id="SvgjsTspan1241" style="text-decoration:;">与SocketProxy握手，将目的地</tspan></tspan><tspan id="SvgjsTspan1242" dy="16" x="103"><tspan id="SvgjsTspan1243" style="text-decoration:;">址告诉SocketProxy服务器，让</tspan></tspan><tspan id="SvgjsTspan1244" dy="16" x="103"><tspan id="SvgjsTspan1245" style="text-decoration:;">服务器去访问</tspan></tspan></text></g></g><g id="SvgjsG1246"><path id="SvgjsPath1247" d="M136 672L315.25 672L315.25 760L494.5 760" stroke="#323232" stroke-width="2" fill="none" marker-end="url(#SvgjsMarker1248)"></path></g><g id="SvgjsG1250"><path id="SvgjsPath1251" d="M397 221L267 221L267 312L136 312" stroke="#323232" stroke-width="2" fill="none" marker-end="url(#SvgjsMarker1252)"></path></g><g id="SvgjsG1254"><path id="SvgjsPath1255" d="M397 221L267 221L267 132L136 132" stroke="#323232" stroke-width="2" fill="none" marker-end="url(#SvgjsMarker1256)"></path></g><g id="SvgjsG1258"><path id="SvgjsPath1259" d="M912.5 622L1024.5 622L1024.5 444L1136.5 444" stroke="#323232" stroke-width="2" fill="none" marker-end="url(#SvgjsMarker1260)"></path></g><g id="SvgjsG1262"><path id="SvgjsPath1263" d="M1136.5 444L1024.5 444L1024.5 622L912.5 622" stroke="#323232" stroke-width="2" fill="none" marker-end="url(#SvgjsMarker1264)"></path><rect id="SvgjsRect1266" width="408" height="72" x="820.5" y="497" fill="#ffffff"></rect><text id="SvgjsText1267" font-family="微软雅黑" text-anchor="start" font-size="14px" width="408px" fill="#323232" font-weight="400" align="top" lineHeight="18px" anchor="start" family="微软雅黑" size="14px" weight="400" font-style="" opacity="1" y="495.25" transform="rotate(0)"><tspan id="SvgjsTspan1268" dy="17" x="820.5"><tspan id="SvgjsTspan1269" style="text-decoration:;">1. 发送第一个字节加密方式（0 异或，1 TLS）</tspan></tspan><tspan id="SvgjsTspan1270" dy="17" x="820.5"><tspan id="SvgjsTspan1271" style="text-decoration:;">2. 校验密码（双向校验）</tspan></tspan><tspan id="SvgjsTspan1272" dy="17" x="820.5"><tspan id="SvgjsTspan1273" style="text-decoration:;">3. 发送目的地址，服务端判断是否为内网地址（内网不允许访问）</tspan></tspan><tspan id="SvgjsTspan1274" dy="17" x="820.5"><tspan id="SvgjsTspan1275" style="text-decoration:;">4. 访问目的地址，转发数据</tspan></tspan></text></g><g id="SvgjsG1276"><path id="SvgjsPath1277" d="M136 221L267 221L267 221L397 221" stroke="#323232" stroke-width="2" fill="none" marker-end="url(#SvgjsMarker1278)"></path></g><g id="SvgjsG1280"><path id="SvgjsPath1281" d="M397 221L267 221L267 221L136 221" stroke="#323232" stroke-width="2" fill="none" marker-end="url(#SvgjsMarker1282)"></path></g><g id="SvgjsG1284"><path id="SvgjsPath1285" d="M1236.5 444L1344.25 444L1344.25 444L1453 444" stroke="#323232" stroke-width="2" fill="none" marker-end="url(#SvgjsMarker1286)"></path></g><g id="SvgjsG1288"><path id="SvgjsPath1289" d="M1453 444L1344.25 444L1344.25 444L1236.5 444" stroke="#323232" stroke-width="2" fill="none" marker-end="url(#SvgjsMarker1290)"></path></g><g id="SvgjsG1292"><path id="SvgjsPath1293" d="M1453 357L1344.25 357L1344.25 444L1236.5 444" stroke="#323232" stroke-width="2" fill="none" marker-end="url(#SvgjsMarker1294)"></path></g><g id="SvgjsG1296"><path id="SvgjsPath1297" d="M1453 535L1344.25 535L1344.25 444L1236.5 444" stroke="#323232" stroke-width="2" fill="none" marker-end="url(#SvgjsMarker1298)"></path></g><g id="SvgjsG1300"><path id="SvgjsPath1301" d="M1236.5 444L1344.75 444L1344.75 357L1453 357" stroke="#323232" stroke-width="2" fill="none" marker-end="url(#SvgjsMarker1302)"></path></g><g id="SvgjsG1304"><path id="SvgjsPath1305" d="M1236.5 444L1344.75 444L1344.75 535L1453 535" stroke="#323232" stroke-width="2" fill="none" marker-end="url(#SvgjsMarker1306)"></path></g><g id="SvgjsG1308"><path id="SvgjsPath1309" d="M494.5 760L315.25 760L315.25 672L136 672" stroke="#323232" stroke-width="2" fill="none" marker-end="url(#SvgjsMarker1310)"></path></g><g id="SvgjsG1312"><path id="SvgjsPath1313" d="M494.5 760L315.25 760L315.25 760L136 760" stroke="#323232" stroke-width="2" fill="none" marker-end="url(#SvgjsMarker1314)"></path></g><g id="SvgjsG1316"><path id="SvgjsPath1317" d="M494.5 760L315.25 760L315.25 852L136 852" stroke="#323232" stroke-width="2" fill="none" marker-end="url(#SvgjsMarker1318)"></path></g><g id="SvgjsG1320"><path id="SvgjsPath1321" d="M136 672L315.25 672L315.25 760L494.5 760" stroke="#323232" stroke-width="2" fill="none" marker-end="url(#SvgjsMarker1322)"></path></g><g id="SvgjsG1324"><path id="SvgjsPath1325" d="M136 760L315.25 760L315.25 760L494.5 760" stroke="#323232" stroke-width="2" fill="none" marker-end="url(#SvgjsMarker1326)"></path></g><g id="SvgjsG1328"><path id="SvgjsPath1329" d="M136 852L315.25 852L315.25 760L494.5 760" stroke="#323232" stroke-width="2" fill="none" marker-end="url(#SvgjsMarker1330)"></path></g></svg>