<svg id="SvgjsSvg3096" width="1589" height="936.5" xmlns="http://www.w3.org/2000/svg" version="1.1" xmlns:xlink="http://www.w3.org/1999/xlink" xmlns:svgjs="http://svgjs.com/svgjs"><defs id="SvgjsDefs3097"><marker id="SvgjsMarker3222" markerWidth="16" markerHeight="12" refX="16" refY="6" viewBox="0 0 16 12" orient="auto" markerUnits="userSpaceOnUse" stroke-dasharray="0,0"><path id="SvgjsPath3223" d="M0,2 L14,6 L0,11 L0,2" fill="#323232" stroke="#323232" stroke-width="2"></path></marker><marker id="SvgjsMarker3226" markerWidth="16" markerHeight="12" refX="16" refY="6" viewBox="0 0 16 12" orient="auto" markerUnits="userSpaceOnUse" stroke-dasharray="0,0"><path id="SvgjsPath3227" d="M0,2 L14,6 L0,11 L0,2" fill="#323232" stroke="#323232" stroke-width="2"></path></marker><marker id="SvgjsMarker3252" markerWidth="16" markerHeight="12" refX="16" refY="6" viewBox="0 0 16 12" orient="auto" markerUnits="userSpaceOnUse" stroke-dasharray="0,0"><path id="SvgjsPath3253" d="M0,2 L14,6 L0,11 L0,2" fill="#323232" stroke="#323232" stroke-width="2"></path></marker><marker id="SvgjsMarker3266" markerWidth="16" markerHeight="12" refX="16" refY="6" viewBox="0 0 16 12" orient="auto" markerUnits="userSpaceOnUse" stroke-dasharray="0,0"><path id="SvgjsPath3267" d="M0,2 L14,6 L0,11 L0,2" fill="#323232" stroke="#323232" stroke-width="2"></path></marker><marker id="SvgjsMarker3286" markerWidth="16" markerHeight="12" refX="16" refY="6" viewBox="0 0 16 12" orient="auto" markerUnits="userSpaceOnUse" stroke-dasharray="0,0"><path id="SvgjsPath3287" d="M0,2 L14,6 L0,11 L0,2" fill="#323232" stroke="#323232" stroke-width="2"></path></marker><marker id="SvgjsMarker3290" markerWidth="16" markerHeight="12" refX="16" refY="6" viewBox="0 0 16 12" orient="auto" markerUnits="userSpaceOnUse" stroke-dasharray="0,0"><path id="SvgjsPath3291" d="M0,2 L14,6 L0,11 L0,2" fill="#323232" stroke="#323232" stroke-width="2"></path></marker><marker id="SvgjsMarker3294" markerWidth="16" markerHeight="12" refX="16" refY="6" viewBox="0 0 16 12" orient="auto" markerUnits="userSpaceOnUse" stroke-dasharray="0,0"><path id="SvgjsPath3295" d="M0,2 L14,6 L0,11 L0,2" fill="#323232" stroke="#323232" stroke-width="2"></path></marker><marker id="SvgjsMarker3302" markerWidth="16" markerHeight="12" refX="16" refY="6" viewBox="0 0 16 12" orient="auto" markerUnits="userSpaceOnUse" stroke-dasharray="0,0"><path id="SvgjsPath3303" d="M0,2 L14,6 L0,11 L0,2" fill="#323232" stroke="#323232" stroke-width="2"></path></marker><marker id="SvgjsMarker3310" markerWidth="16" markerHeight="12" refX="16" refY="6" viewBox="0 0 16 12" orient="auto" markerUnits="userSpaceOnUse" stroke-dasharray="0,0"><path id="SvgjsPath3311" d="M0,2 L14,6 L0,11 L0,2" fill="#323232" stroke="#323232" stroke-width="2"></path></marker><marker id="SvgjsMarker3338" markerWidth="16" markerHeight="12" refX="16" refY="6" viewBox="0 0 16 12" orient="auto" markerUnits="userSpaceOnUse" stroke-dasharray="0,0"><path id="SvgjsPath3339" d="M0,2 L14,6 L0,11 L0,2" fill="#323232" stroke="#323232" stroke-width="2"></path></marker><marker id="SvgjsMarker3342" markerWidth="16" markerHeight="12" refX="16" refY="6" viewBox="0 0 16 12" orient="auto" markerUnits="userSpaceOnUse" stroke-dasharray="0,0"><path id="SvgjsPath3343" d="M0,2 L14,6 L0,11 L0,2" fill="#323232" stroke="#323232" stroke-width="2"></path></marker><marker id="SvgjsMarker3346" markerWidth="16" markerHeight="12" refX="16" refY="6" viewBox="0 0 16 12" orient="auto" markerUnits="userSpaceOnUse" stroke-dasharray="0,0"><path id="SvgjsPath3347" d="M0,2 L14,6 L0,11 L0,2" fill="#323232" stroke="#323232" stroke-width="2"></path></marker><marker id="SvgjsMarker3350" markerWidth="16" markerHeight="12" refX="16" refY="6" viewBox="0 0 16 12" orient="auto" markerUnits="userSpaceOnUse" stroke-dasharray="0,0"><path id="SvgjsPath3351" d="M0,2 L14,6 L0,11 L0,2" fill="#323232" stroke="#323232" stroke-width="2"></path></marker><marker id="SvgjsMarker3354" markerWidth="16" markerHeight="12" refX="16" refY="6" viewBox="0 0 16 12" orient="auto" markerUnits="userSpaceOnUse" stroke-dasharray="0,0"><path id="SvgjsPath3355" d="M0,2 L14,6 L0,11 L0,2" fill="#323232" stroke="#323232" stroke-width="2"></path></marker><marker id="SvgjsMarker3368" markerWidth="16" markerHeight="12" refX="16" refY="6" viewBox="0 0 16 12" orient="auto" markerUnits="userSpaceOnUse" stroke-dasharray="0,0"><path id="SvgjsPath3369" d="M0,2 L14,6 L0,11 L0,2" fill="#323232" stroke="#323232" stroke-width="2"></path></marker><marker id="SvgjsMarker3372" markerWidth="16" markerHeight="12" refX="16" refY="6" viewBox="0 0 16 12" orient="auto" markerUnits="userSpaceOnUse" stroke-dasharray="0,0"><path id="SvgjsPath3373" d="M0,2 L14,6 L0,11 L0,2" fill="#323232" stroke="#323232" stroke-width="2"></path></marker><marker id="SvgjsMarker3376" markerWidth="16" markerHeight="12" refX="16" refY="6" viewBox="0 0 16 12" orient="auto" markerUnits="userSpaceOnUse" stroke-dasharray="0,0"><path id="SvgjsPath3377" d="M0,2 L14,6 L0,11 L0,2" fill="#323232" stroke="#323232" stroke-width="2"></path></marker><marker id="SvgjsMarker3380" markerWidth="16" markerHeight="12" refX="16" refY="6" viewBox="0 0 16 12" orient="auto" markerUnits="userSpaceOnUse" stroke-dasharray="0,0"><path id="SvgjsPath3381" d="M0,2 L14,6 L0,11 L0,2" fill="#323232" stroke="#323232" stroke-width="2"></path></marker><marker id="SvgjsMarker3384" markerWidth="16" markerHeight="12" refX="16" refY="6" viewBox="0 0 16 12" orient="auto" markerUnits="userSpaceOnUse" stroke-dasharray="0,0"><path id="SvgjsPath3385" d="M0,2 L14,6 L0,11 L0,2" fill="#323232" stroke="#323232" stroke-width="2"></path></marker><marker id="SvgjsMarker3388" markerWidth="16" markerHeight="12" refX="16" refY="6" viewBox="0 0 16 12" orient="auto" markerUnits="userSpaceOnUse" stroke-dasharray="0,0"><path id="SvgjsPath3389" d="M0,2 L14,6 L0,11 L0,2" fill="#323232" stroke="#323232" stroke-width="2"></path></marker><marker id="SvgjsMarker3392" markerWidth="16" markerHeight="12" refX="16" refY="6" viewBox="0 0 16 12" orient="auto" markerUnits="userSpaceOnUse" stroke-dasharray="0,0"><path id="SvgjsPath3393" d="M0,2 L14,6 L0,11 L0,2" fill="#323232" stroke="#323232" stroke-width="2"></path></marker><marker id="SvgjsMarker3396" markerWidth="16" markerHeight="12" refX="16" refY="6" viewBox="0 0 16 12" orient="auto" markerUnits="userSpaceOnUse" stroke-dasharray="0,0"><path id="SvgjsPath3397" d="M0,2 L14,6 L0,11 L0,2" fill="#323232" stroke="#323232" stroke-width="2"></path></marker><marker id="SvgjsMarker3400" markerWidth="16" markerHeight="12" refX="16" refY="6" viewBox="0 0 16 12" orient="auto" markerUnits="userSpaceOnUse" stroke-dasharray="0,0"><path id="SvgjsPath3401" d="M0,2 L14,6 L0,11 L0,2" fill="#323232" stroke="#323232" stroke-width="2"></path></marker><marker id="SvgjsMarker3404" markerWidth="16" markerHeight="12" refX="16" refY="6" viewBox="0 0 16 12" orient="auto" markerUnits="userSpaceOnUse" stroke-dasharray="0,0"><path id="SvgjsPath3405" d="M0,2 L14,6 L0,11 L0,2" fill="#323232" stroke="#323232" stroke-width="2"></path></marker><marker id="SvgjsMarker3408" markerWidth="16" markerHeight="12" refX="16" refY="6" viewBox="0 0 16 12" orient="auto" markerUnits="userSpaceOnUse" stroke-dasharray="0,0"><path id="SvgjsPath3409" d="M0,2 L14,6 L0,11 L0,2" fill="#323232" stroke="#323232" stroke-width="2"></path></marker><marker id="SvgjsMarker3412" markerWidth="16" markerHeight="12" refX="16" refY="6" viewBox="0 0 16 12" orient="auto" markerUnits="userSpaceOnUse" stroke-dasharray="0,0"><path id="SvgjsPath3413" d="M0,2 L14,6 L0,11 L0,2" fill="#323232" stroke="#323232" stroke-width="2"></path></marker><marker id="SvgjsMarker3416" markerWidth="16" markerHeight="12" refX="16" refY="6" viewBox="0 0 16 12" orient="auto" markerUnits="userSpaceOnUse" stroke-dasharray="0,0"><path id="SvgjsPath3417" d="M0,2 L14,6 L0,11 L0,2" fill="#323232" stroke="#323232" stroke-width="2"></path></marker><marker id="SvgjsMarker3420" markerWidth="16" markerHeight="12" refX="16" refY="6" viewBox="0 0 16 12" orient="auto" markerUnits="userSpaceOnUse" stroke-dasharray="0,0"><path id="SvgjsPath3421" d="M0,2 L14,6 L0,11 L0,2" fill="#323232" stroke="#323232" stroke-width="2"></path></marker></defs><g id="SvgjsG3098" transform="translate(342.5,296)"><path id="SvgjsPath3099" d="M 0 4Q 0 0 4 0L 589 0Q 593 0 593 4L 593 529Q 593 533 589 533L 4 533Q 0 533 0 529Z" stroke="rgba(50,50,50,1)" stroke-width="2" fill-opacity="1" fill="#ffffff"></path><g id="SvgjsG3100"><text id="SvgjsText3101" font-family="微软雅黑" text-anchor="middle" font-size="13px" width="573px" fill="#323232" font-weight="400" align="middle" lineHeight="125%" anchor="middle" family="微软雅黑" size="13px" weight="400" font-style="" opacity="1" y="256.875" transform="rotate(0)"></text></g></g><g id="SvgjsG3102" transform="translate(25,69.5)"><path id="SvgjsPath3103" d="M 0 0L 141 0L 141 303L 0 303Z" stroke="rgba(50,50,50,1)" stroke-width="2" fill-opacity="1" fill="#ffffff"></path><g id="SvgjsG3104"><text id="SvgjsText3105" font-family="微软雅黑" text-anchor="middle" font-size="14px" width="121px" fill="#323232" font-weight="400" align="middle" lineHeight="125%" anchor="middle" family="微软雅黑" size="14px" weight="400" font-style="" opacity="1" y="141.25" transform="rotate(0)"></text></g></g><g id="SvgjsG3106" transform="translate(55,115)"><path id="SvgjsPath3107" d="M 0 0L 81 0L 81 34L 0 34Z" stroke="rgba(50,50,50,1)" stroke-width="2" fill-opacity="1" fill="#ffffff"></path><g id="SvgjsG3108"><text id="SvgjsText3109" font-family="微软雅黑" text-anchor="middle" font-size="13px" width="61px" fill="#323232" font-weight="400" align="middle" lineHeight="125%" anchor="middle" family="微软雅黑" size="13px" weight="400" font-style="" opacity="1" y="7.375" transform="rotate(0)"><tspan id="SvgjsTspan3110" dy="16" x="40.5"><tspan id="SvgjsTspan3111" style="text-decoration:;">浏览器</tspan></tspan></text></g></g><g id="SvgjsG3112" transform="translate(55,204)"><path id="SvgjsPath3113" d="M 0 0L 81 0L 81 34L 0 34Z" stroke="rgba(50,50,50,1)" stroke-width="2" fill-opacity="1" fill="#ffffff"></path><g id="SvgjsG3114"><text id="SvgjsText3115" font-family="微软雅黑" text-anchor="middle" font-size="13px" width="61px" fill="#323232" font-weight="400" align="middle" lineHeight="125%" anchor="middle" family="微软雅黑" size="13px" weight="400" font-style="" opacity="1" y="7.375" transform="rotate(0)"><tspan id="SvgjsTspan3116" dy="16" x="40.5"><tspan id="SvgjsTspan3117" style="text-decoration:;">QQ</tspan></tspan></text></g></g><g id="SvgjsG3118" transform="translate(55,295)"><path id="SvgjsPath3119" d="M 0 0L 81 0L 81 34L 0 34Z" stroke="rgba(50,50,50,1)" stroke-width="2" fill-opacity="1" fill="#ffffff"></path><g id="SvgjsG3120"><text id="SvgjsText3121" font-family="微软雅黑" text-anchor="middle" font-size="13px" width="61px" fill="#323232" font-weight="400" align="middle" lineHeight="125%" anchor="middle" family="微软雅黑" size="13px" weight="400" font-style="" opacity="1" y="7.375" transform="rotate(0)"><tspan id="SvgjsTspan3122" dy="16" x="40.5"><tspan id="SvgjsTspan3123" style="text-decoration:;">微信</tspan></tspan></text></g></g><g id="SvgjsG3124" transform="translate(35.5,25)"><path id="SvgjsPath3125" d="M 0 0L 120 0L 120 40L 0 40Z" stroke="none" fill="none"></path><g id="SvgjsG3126"><text id="SvgjsText3127" font-family="微软雅黑" text-anchor="middle" font-size="14px" width="120px" fill="#323232" font-weight="400" align="middle" lineHeight="125%" anchor="middle" family="微软雅黑" size="14px" weight="400" font-style="" opacity="1" y="9.75" transform="rotate(0)"><tspan id="SvgjsTspan3128" dy="17" x="60"><tspan id="SvgjsTspan3129" style="text-decoration:;">本地应用</tspan></tspan></text></g></g><g id="SvgjsG3130" transform="translate(397,186)"><path id="SvgjsPath3131" d="M 0 0L 107 0L 107 70L 0 70Z" stroke="rgba(50,50,50,1)" stroke-width="2" fill-opacity="1" fill="#ffffff"></path><g id="SvgjsG3132"><text id="SvgjsText3133" font-family="微软雅黑" text-anchor="middle" font-size="13px" width="87px" fill="#323232" font-weight="400" align="middle" lineHeight="125%" anchor="middle" family="微软雅黑" size="13px" weight="400" font-style="" opacity="1" y="17.375" transform="rotate(0)"><tspan id="SvgjsTspan3134" dy="16" x="53.5"><tspan id="SvgjsTspan3135" style="text-decoration:;">SocketProxy</tspan></tspan><tspan id="SvgjsTspan3136" dy="16" x="53.5"><tspan id="SvgjsTspan3137" style="text-decoration:;">客户端</tspan></tspan></text></g></g><g id="SvgjsG3138" transform="translate(1136.5,409)"><path id="SvgjsPath3139" d="M 0 0L 100 0L 100 70L 0 70Z" stroke="rgba(50,50,50,1)" stroke-width="2" fill-opacity="1" fill="#ffffff"></path><g id="SvgjsG3140"><text id="SvgjsText3141" font-family="微软雅黑" text-anchor="middle" font-size="13px" width="80px" fill="#323232" font-weight="400" align="middle" lineHeight="125%" anchor="middle" family="微软雅黑" size="13px" weight="400" font-style="" opacity="1" y="17.375" transform="rotate(0)"><tspan id="SvgjsTspan3142" dy="16" x="50"><tspan id="SvgjsTspan3143" style="text-decoration:;">SocketProxy</tspan></tspan><tspan id="SvgjsTspan3144" dy="16" x="50"><tspan id="SvgjsTspan3145" style="text-decoration:;">服务器</tspan></tspan></text></g></g><g id="SvgjsG3146" transform="translate(1423,292.5)"><path id="SvgjsPath3147" d="M 0 0L 141 0L 141 303L 0 303Z" stroke="rgba(50,50,50,1)" stroke-width="2" fill-opacity="1" fill="#ffffff"></path><g id="SvgjsG3148"><text id="SvgjsText3149" font-family="微软雅黑" text-anchor="middle" font-size="14px" width="121px" fill="#323232" font-weight="400" align="middle" lineHeight="125%" anchor="middle" family="微软雅黑" size="14px" weight="400" font-style="" opacity="1" y="141.25" transform="rotate(0)"></text></g></g><g id="SvgjsG3150" transform="translate(1453,340)"><path id="SvgjsPath3151" d="M 0 0L 81 0L 81 34L 0 34Z" stroke="rgba(50,50,50,1)" stroke-width="2" fill-opacity="1" fill="#ffffff"></path><g id="SvgjsG3152"><text id="SvgjsText3153" font-family="微软雅黑" text-anchor="middle" font-size="13px" width="61px" fill="#323232" font-weight="400" align="middle" lineHeight="125%" anchor="middle" family="微软雅黑" size="13px" weight="400" font-style="" opacity="1" y="7.375" transform="rotate(0)"><tspan id="SvgjsTspan3154" dy="16" x="40.5"><tspan id="SvgjsTspan3155" style="text-decoration:;">谷歌</tspan></tspan></text></g></g><g id="SvgjsG3156" transform="translate(1433.5,248)"><path id="SvgjsPath3157" d="M 0 0L 120 0L 120 40L 0 40Z" stroke="none" fill="none"></path><g id="SvgjsG3158"><text id="SvgjsText3159" font-family="微软雅黑" text-anchor="middle" font-size="14px" width="120px" fill="#323232" font-weight="400" align="middle" lineHeight="125%" anchor="middle" family="微软雅黑" size="14px" weight="400" font-style="" opacity="1" y="9.75" transform="rotate(0)"><tspan id="SvgjsTspan3160" dy="17" x="60"><tspan id="SvgjsTspan3161" style="text-decoration:;">国外服务器</tspan></tspan></text></g></g><g id="SvgjsG3162" transform="translate(1453,427)"><path id="SvgjsPath3163" d="M 0 0L 81 0L 81 34L 0 34Z" stroke="rgba(50,50,50,1)" stroke-width="2" fill-opacity="1" fill="#ffffff"></path><g id="SvgjsG3164"><text id="SvgjsText3165" font-family="微软雅黑" text-anchor="middle" font-size="13px" width="61px" fill="#323232" font-weight="400" align="middle" lineHeight="125%" anchor="middle" family="微软雅黑" size="13px" weight="400" font-style="" opacity="1" y="7.375" transform="rotate(0)"><tspan id="SvgjsTspan3166" dy="16" x="40.5"><tspan id="SvgjsTspan3167" style="text-decoration:;">github</tspan></tspan></text></g></g><g id="SvgjsG3168" transform="translate(1453,518)"><path id="SvgjsPath3169" d="M 0 0L 81 0L 81 34L 0 34Z" stroke="rgba(50,50,50,1)" stroke-width="2" fill-opacity="1" fill="#ffffff"></path><g id="SvgjsG3170"><text id="SvgjsText3171" font-family="微软雅黑" text-anchor="middle" font-size="13px" width="61px" fill="#323232" font-weight="400" align="middle" lineHeight="125%" anchor="middle" family="微软雅黑" size="13px" weight="400" font-style="" opacity="1" y="7.375" transform="rotate(0)"><tspan id="SvgjsTspan3172" dy="16" x="40.5"><tspan id="SvgjsTspan3173" style="text-decoration:;">facebook</tspan></tspan></text></g></g><g id="SvgjsG3174" transform="translate(25,608.5)"><path id="SvgjsPath3175" d="M 0 0L 141 0L 141 303L 0 303Z" stroke="rgba(50,50,50,1)" stroke-width="2" fill-opacity="1" fill="#ffffff"></path><g id="SvgjsG3176"><text id="SvgjsText3177" font-family="微软雅黑" text-anchor="middle" font-size="14px" width="121px" fill="#323232" font-weight="400" align="middle" lineHeight="125%" anchor="middle" family="微软雅黑" size="14px" weight="400" font-style="" opacity="1" y="141.25" transform="rotate(0)"></text></g></g><g id="SvgjsG3178" transform="translate(55,655)"><path id="SvgjsPath3179" d="M 0 0L 81 0L 81 34L 0 34Z" stroke="rgba(50,50,50,1)" stroke-width="2" fill-opacity="1" fill="#ffffff"></path><g id="SvgjsG3180"><text id="SvgjsText3181" font-family="微软雅黑" text-anchor="middle" font-size="13px" width="61px" fill="#323232" font-weight="400" align="middle" lineHeight="125%" anchor="middle" family="微软雅黑" size="13px" weight="400" font-style="" opacity="1" y="7.375" transform="rotate(0)"><tspan id="SvgjsTspan3182" dy="16" x="40.5"><tspan id="SvgjsTspan3183" style="text-decoration:;">腾讯</tspan></tspan></text></g></g><g id="SvgjsG3184" transform="translate(35.5,562.5)"><path id="SvgjsPath3185" d="M 0 0L 120 0L 120 40L 0 40Z" stroke="none" fill="none"></path><g id="SvgjsG3186"><text id="SvgjsText3187" font-family="微软雅黑" text-anchor="middle" font-size="14px" width="120px" fill="#323232" font-weight="400" align="middle" lineHeight="125%" anchor="middle" family="微软雅黑" size="14px" weight="400" font-style="" opacity="1" y="9.75" transform="rotate(0)"><tspan id="SvgjsTspan3188" dy="17" x="60"><tspan id="SvgjsTspan3189" style="text-decoration:;">国内服务器</tspan></tspan></text></g></g><g id="SvgjsG3190" transform="translate(55,743)"><path id="SvgjsPath3191" d="M 0 0L 81 0L 81 34L 0 34Z" stroke="rgba(50,50,50,1)" stroke-width="2" fill-opacity="1" fill="#ffffff"></path><g id="SvgjsG3192"><text id="SvgjsText3193" font-family="微软雅黑" text-anchor="middle" font-size="13px" width="61px" fill="#323232" font-weight="400" align="middle" lineHeight="125%" anchor="middle" family="微软雅黑" size="13px" weight="400" font-style="" opacity="1" y="7.375" transform="rotate(0)"><tspan id="SvgjsTspan3194" dy="16" x="40.5"><tspan id="SvgjsTspan3195" style="text-decoration:;">百度</tspan></tspan></text></g></g><g id="SvgjsG3196" transform="translate(55,835)"><path id="SvgjsPath3197" d="M 0 0L 81 0L 81 34L 0 34Z" stroke="rgba(50,50,50,1)" stroke-width="2" fill-opacity="1" fill="#ffffff"></path><g id="SvgjsG3198"><text id="SvgjsText3199" font-family="微软雅黑" text-anchor="middle" font-size="13px" width="61px" fill="#323232" font-weight="400" align="middle" lineHeight="125%" anchor="middle" family="微软雅黑" size="13px" weight="400" font-style="" opacity="1" y="7.375" transform="rotate(0)"><tspan id="SvgjsTspan3200" dy="16" x="40.5"><tspan id="SvgjsTspan3201" style="text-decoration:;">bilibili</tspan></tspan></text></g></g><g id="SvgjsG3202" transform="translate(397,56)"><path id="SvgjsPath3203" d="M 0 0L 1116.5 0L 1116.5 148L 0 148Z" stroke="none" fill="none"></path><g id="SvgjsG3204"><text id="SvgjsText3205" font-family="微软雅黑" text-anchor="start" font-size="14px" width="1117px" fill="#323232" font-weight="400" align="middle" lineHeight="125%" anchor="start" family="微软雅黑" size="14px" weight="400" font-style="" opacity="1" y="12.75" transform="rotate(0)"><tspan id="SvgjsTspan3206" dy="17" x="0"><tspan id="SvgjsTspan3207" style="text-decoration:;">1. 监听本地TCP地址</tspan></tspan><tspan id="SvgjsTspan3208" dy="17" x="0"><tspan id="SvgjsTspan3209" style="text-decoration:;">2. 让本地应用连接客户端（windows可以设置系统代理，通过http/socks5的方式让本地应用连接客户端）</tspan></tspan><tspan id="SvgjsTspan3210" dy="17" x="0"><tspan id="SvgjsTspan3211" style="text-decoration:;">3. 客户端解析本地应用请求的http/socks5数据，获取访问的目的地址</tspan></tspan><tspan id="SvgjsTspan3212" dy="17" x="0"><tspan id="SvgjsTspan3213" style="text-decoration:;">4. 解析域名，如果域名在gfw列表，则通过 SocketProxy服务器解析域名</tspan></tspan><tspan id="SvgjsTspan3214" dy="17" x="0"><tspan id="SvgjsTspan3215" style="text-decoration:;">5. 解析域名之后获取ip，判断ip是否在国内</tspan></tspan><tspan id="SvgjsTspan3216" dy="17" x="0"><tspan id="SvgjsTspan3217" style="text-decoration:;">6. ip在国内，客户端直接与国内服务器建立连接，转发数据；ip在国外，与SocketProxy服务器建立连接，然后将数据发送给SocketProxy服务器转发数据</tspan></tspan><tspan id="SvgjsTspan3218" dy="17" x="0"><tspan id="SvgjsTspan3219" style="text-decoration:;"> </tspan></tspan></text></g></g><g id="SvgjsG3220"><path id="SvgjsPath3221" d="M136 132L267 132L267 221L397 221" stroke="#323232" stroke-width="2" fill="none" marker-end="url(#SvgjsMarker3222)"></path></g><g id="SvgjsG3224"><path id="SvgjsPath3225" d="M136 312L267 312L267 221L397 221" stroke="#323232" stroke-width="2" fill="none" marker-end="url(#SvgjsMarker3226)"></path></g><g id="SvgjsG3228" transform="translate(273.5,173)"><path id="SvgjsPath3229" d="M 0 0L 120 0L 120 34L 0 34Z" stroke="none" fill="none"></path><g id="SvgjsG3230"><text id="SvgjsText3231" font-family="微软雅黑" text-anchor="middle" font-size="14px" width="120px" fill="#323232" font-weight="400" align="middle" lineHeight="125%" anchor="middle" family="微软雅黑" size="14px" weight="400" font-style="" opacity="1" y="-1.75" transform="rotate(0)"><tspan id="SvgjsTspan3232" dy="17" x="60"><tspan id="SvgjsTspan3233" style="text-decoration:;">windows通过</tspan></tspan><tspan id="SvgjsTspan3234" dy="17" x="60"><tspan id="SvgjsTspan3235" style="text-decoration:;">http/sokcs5</tspan></tspan></text></g></g><g id="SvgjsG3236" transform="translate(273.5,228)"><path id="SvgjsPath3237" d="M 0 0L 120 0L 120 34L 0 34Z" stroke="none" fill="none"></path><g id="SvgjsG3238"><text id="SvgjsText3239" font-family="微软雅黑" text-anchor="middle" font-size="14px" width="120px" fill="#323232" font-weight="400" align="middle" lineHeight="125%" anchor="middle" family="微软雅黑" size="14px" weight="400" font-style="" opacity="1" y="-1.75" transform="rotate(0)"><tspan id="SvgjsTspan3240" dy="17" x="60"><tspan id="SvgjsTspan3241" style="text-decoration:;">linux/android可以</tspan></tspan><tspan id="SvgjsTspan3242" dy="17" x="60"><tspan id="SvgjsTspan3243" style="text-decoration:;">通过iptables</tspan></tspan></text></g></g><g id="SvgjsG3244" transform="translate(390.5,317)"><path id="SvgjsPath3245" d="M 0 40L 60 0L 120 40L 60 80Z" stroke="rgba(50,50,50,1)" stroke-width="2" fill-opacity="1" fill="#ffffff"></path><g id="SvgjsG3246"><text id="SvgjsText3247" font-family="微软雅黑" text-anchor="middle" font-size="13px" width="100px" fill="#323232" font-weight="400" align="middle" lineHeight="125%" anchor="middle" family="微软雅黑" size="13px" weight="400" font-style="" opacity="1" y="30.775" transform="rotate(0)"><tspan id="SvgjsTspan3248" dy="16" x="60"><tspan id="SvgjsTspan3249" style="text-decoration:;">域名是否在gfw</tspan></tspan></text></g></g><g id="SvgjsG3250"><path id="SvgjsPath3251" d="M450.5 256L450.5 286.078125L450.5 286.078125L450.5 317" stroke="#323232" stroke-width="2" fill="none" marker-end="url(#SvgjsMarker3252)"></path></g><g id="SvgjsG3254" transform="translate(582.5,325.25)"><path id="SvgjsPath3255" d="M 0 0L 141 0L 141 63.5L 0 63.5Z" stroke="rgba(50,50,50,1)" stroke-width="2" fill-opacity="1" fill="#ffffff"></path><g id="SvgjsG3256"><text id="SvgjsText3257" font-family="微软雅黑" text-anchor="middle" font-size="13px" width="121px" fill="#323232" font-weight="400" align="middle" lineHeight="125%" anchor="middle" family="微软雅黑" size="13px" weight="400" font-style="" opacity="1" y="6.125" transform="rotate(0)"><tspan id="SvgjsTspan3258" dy="16" x="70.5"><tspan id="SvgjsTspan3259" style="text-decoration:;">将数据发送给</tspan></tspan><tspan id="SvgjsTspan3260" dy="16" x="70.5"><tspan id="SvgjsTspan3261" style="text-decoration:;">SocketProxy服务端</tspan></tspan><tspan id="SvgjsTspan3262" dy="16" x="70.5"><tspan id="SvgjsTspan3263" style="text-decoration:;">进行域名解析</tspan></tspan></text></g></g><g id="SvgjsG3264"><path id="SvgjsPath3265" d="M450.5 397L450.5 430.25L450.5 430.25L450.5 463" stroke="#323232" stroke-width="2" fill="none" marker-end="url(#SvgjsMarker3266)"></path><rect id="SvgjsRect3268" width="13" height="16" x="444" y="422" fill="#ffffff"></rect><text id="SvgjsText3269" font-family="微软雅黑" text-anchor="middle" font-size="13px" width="13px" fill="#323232" font-weight="400" align="top" lineHeight="16px" anchor="middle" family="微软雅黑" size="13px" weight="400" font-style="" opacity="1" y="420.375" transform="rotate(0)"><tspan id="SvgjsTspan3270" dy="16" x="450.5"><tspan id="SvgjsTspan3271" style="text-decoration:;">否</tspan></tspan></text></g><g id="SvgjsG3272" transform="translate(397,463)"><path id="SvgjsPath3273" d="M 0 0L 107 0L 107 40L 0 40Z" stroke="rgba(50,50,50,1)" stroke-width="2" fill-opacity="1" fill="#ffffff"></path><g id="SvgjsG3274"><text id="SvgjsText3275" font-family="微软雅黑" text-anchor="middle" font-size="13px" width="87px" fill="#323232" font-weight="400" align="middle" lineHeight="125%" anchor="middle" family="微软雅黑" size="13px" weight="400" font-style="" opacity="1" y="10.375" transform="rotate(0)"><tspan id="SvgjsTspan3276" dy="16" x="53.5"><tspan id="SvgjsTspan3277" style="text-decoration:;">本地dns解析</tspan></tspan></text></g></g><g id="SvgjsG3278" transform="translate(484.5,582)"><path id="SvgjsPath3279" d="M 0 40L 60 0L 120 40L 60 80Z" stroke="rgba(50,50,50,1)" stroke-width="2" fill-opacity="1" fill="#ffffff"></path><g id="SvgjsG3280"><text id="SvgjsText3281" font-family="微软雅黑" text-anchor="middle" font-size="13px" width="100px" fill="#323232" font-weight="400" align="middle" lineHeight="125%" anchor="middle" family="微软雅黑" size="13px" weight="400" font-style="" opacity="1" y="30.775" transform="rotate(0)"><tspan id="SvgjsTspan3282" dy="16" x="60"><tspan id="SvgjsTspan3283" style="text-decoration:;">ip是否在国内</tspan></tspan></text></g></g><g id="SvgjsG3284"><path id="SvgjsPath3285" d="M653 388.75L653 485.375L544.5 485.375L544.5 582" stroke="#323232" stroke-width="2" fill="none" marker-end="url(#SvgjsMarker3286)"></path></g><g id="SvgjsG3288"><path id="SvgjsPath3289" d="M450.5 503L450.5 542.5L544.5 542.5L544.5 582" stroke="#323232" stroke-width="2" fill="none" marker-end="url(#SvgjsMarker3290)"></path></g><g id="SvgjsG3292"><path id="SvgjsPath3293" d="M604.5 622L652 622L652 622L699.5 622" stroke="#323232" stroke-width="2" fill="none" marker-end="url(#SvgjsMarker3294)"></path><rect id="SvgjsRect3296" width="13" height="16" x="645.5" y="614" fill="#ffffff"></rect><text id="SvgjsText3297" font-family="微软雅黑" text-anchor="middle" font-size="13px" width="13px" fill="#323232" font-weight="400" align="top" lineHeight="16px" anchor="middle" family="微软雅黑" size="13px" weight="400" font-style="" opacity="1" y="612.375" transform="rotate(0)"><tspan id="SvgjsTspan3298" dy="16" x="652"><tspan id="SvgjsTspan3299" style="text-decoration:;">是</tspan></tspan></text></g><g id="SvgjsG3300"><path id="SvgjsPath3301" d="M510.5 357L546.5 357L546.5 357L582.5 357" stroke="#323232" stroke-width="2" fill="none" marker-end="url(#SvgjsMarker3302)"></path><rect id="SvgjsRect3304" width="13" height="16" x="540" y="349" fill="#ffffff"></rect><text id="SvgjsText3305" font-family="微软雅黑" text-anchor="middle" font-size="13px" width="13px" fill="#323232" font-weight="400" align="top" lineHeight="16px" anchor="middle" family="微软雅黑" size="13px" weight="400" font-style="" opacity="1" y="347.375" transform="rotate(0)"><tspan id="SvgjsTspan3306" dy="16" x="546.5"><tspan id="SvgjsTspan3307" style="text-decoration:;">是</tspan></tspan></text></g><g id="SvgjsG3308"><path id="SvgjsPath3309" d="M544.5 662L544.5 692.5L544.5 692.5L544.5 725" stroke="#323232" stroke-width="2" fill="none" marker-end="url(#SvgjsMarker3310)"></path><rect id="SvgjsRect3312" width="13" height="16" x="538" y="685.5" fill="#ffffff"></rect><text id="SvgjsText3313" font-family="微软雅黑" text-anchor="middle" font-size="13px" width="13px" fill="#323232" font-weight="400" align="top" lineHeight="16px" anchor="middle" family="微软雅黑" size="13px" weight="400" font-style="" opacity="1" y="683.875" transform="rotate(0)"><tspan id="SvgjsTspan3314" dy="16" x="544.5"><tspan id="SvgjsTspan3315" style="text-decoration:;">否</tspan></tspan></text></g><g id="SvgjsG3316" transform="translate(494.5,725)"><path id="SvgjsPath3317" d="M 0 0L 100 0L 100 70L 0 70Z" stroke="rgba(50,50,50,1)" stroke-width="2" fill-opacity="1" fill="#ffffff"></path><g id="SvgjsG3318"><text id="SvgjsText3319" font-family="微软雅黑" text-anchor="middle" font-size="13px" width="80px" fill="#323232" font-weight="400" align="middle" lineHeight="125%" anchor="middle" family="微软雅黑" size="13px" weight="400" font-style="" opacity="1" y="9.375" transform="rotate(0)"><tspan id="SvgjsTspan3320" dy="16" x="50"><tspan id="SvgjsTspan3321" style="text-decoration:;">直接与国内服</tspan></tspan><tspan id="SvgjsTspan3322" dy="16" x="50"><tspan id="SvgjsTspan3323" style="text-decoration:;">务器建立连接</tspan></tspan><tspan id="SvgjsTspan3324" dy="16" x="50"><tspan id="SvgjsTspan3325" style="text-decoration:;">转发数据</tspan></tspan></text></g></g><g id="SvgjsG3326" transform="translate(706.5,587)"><path id="SvgjsPath3327" d="M 0 0L 206 0L 206 70L 0 70Z" stroke="rgba(50,50,50,1)" stroke-width="2" fill-opacity="1" fill="#ffffff"></path><g id="SvgjsG3328"><text id="SvgjsText3329" font-family="微软雅黑" text-anchor="middle" font-size="13px" width="186px" fill="#323232" font-weight="400" align="middle" lineHeight="125%" anchor="middle" family="微软雅黑" size="13px" weight="400" font-style="" opacity="1" y="9.375" transform="rotate(0)"><tspan id="SvgjsTspan3330" dy="16" x="103"><tspan id="SvgjsTspan3331" style="text-decoration:;">与SocketProxy握手，将目的地</tspan></tspan><tspan id="SvgjsTspan3332" dy="16" x="103"><tspan id="SvgjsTspan3333" style="text-decoration:;">址告诉SocketProxy服务器，让</tspan></tspan><tspan id="SvgjsTspan3334" dy="16" x="103"><tspan id="SvgjsTspan3335" style="text-decoration:;">服务器去访问</tspan></tspan></text></g></g><g id="SvgjsG3336"><path id="SvgjsPath3337" d="M136 672L315.25 672L315.25 760L494.5 760" stroke="#323232" stroke-width="2" fill="none" marker-end="url(#SvgjsMarker3338)"></path></g><g id="SvgjsG3340"><path id="SvgjsPath3341" d="M397 221L267 221L267 312L136 312" stroke="#323232" stroke-width="2" fill="none" marker-end="url(#SvgjsMarker3342)"></path></g><g id="SvgjsG3344"><path id="SvgjsPath3345" d="M397 221L267 221L267 132L136 132" stroke="#323232" stroke-width="2" fill="none" marker-end="url(#SvgjsMarker3346)"></path></g><g id="SvgjsG3348"><path id="SvgjsPath3349" d="M912.5 622L1024.5 622L1024.5 444L1136.5 444" stroke="#323232" stroke-width="2" fill="none" marker-end="url(#SvgjsMarker3350)"></path></g><g id="SvgjsG3352"><path id="SvgjsPath3353" d="M1136.5 444L1024.5 444L1024.5 622L912.5 622" stroke="#323232" stroke-width="2" fill="none" marker-end="url(#SvgjsMarker3354)"></path><rect id="SvgjsRect3356" width="408" height="72" x="820.5" y="497" fill="#ffffff"></rect><text id="SvgjsText3357" font-family="微软雅黑" text-anchor="start" font-size="14px" width="408px" fill="#323232" font-weight="400" align="top" lineHeight="18px" anchor="start" family="微软雅黑" size="14px" weight="400" font-style="" opacity="1" y="495.25" transform="rotate(0)"><tspan id="SvgjsTspan3358" dy="17" x="820.5"><tspan id="SvgjsTspan3359" style="text-decoration:;">1. 发送第一个字节加密方式（0 异或，1 TLS）</tspan></tspan><tspan id="SvgjsTspan3360" dy="17" x="820.5"><tspan id="SvgjsTspan3361" style="text-decoration:;">2. 校验密码（双向校验）</tspan></tspan><tspan id="SvgjsTspan3362" dy="17" x="820.5"><tspan id="SvgjsTspan3363" style="text-decoration:;">3. 发送目的地址，服务端判断是否为内网地址（内网不允许访问）</tspan></tspan><tspan id="SvgjsTspan3364" dy="17" x="820.5"><tspan id="SvgjsTspan3365" style="text-decoration:;">4. 访问目的地址，转发数据</tspan></tspan></text></g><g id="SvgjsG3366"><path id="SvgjsPath3367" d="M136 221L267 221L267 221L397 221" stroke="#323232" stroke-width="2" fill="none" marker-end="url(#SvgjsMarker3368)"></path></g><g id="SvgjsG3370"><path id="SvgjsPath3371" d="M397 221L267 221L267 221L136 221" stroke="#323232" stroke-width="2" fill="none" marker-end="url(#SvgjsMarker3372)"></path></g><g id="SvgjsG3374"><path id="SvgjsPath3375" d="M1236.5 444L1344.25 444L1344.25 444L1453 444" stroke="#323232" stroke-width="2" fill="none" marker-end="url(#SvgjsMarker3376)"></path></g><g id="SvgjsG3378"><path id="SvgjsPath3379" d="M1453 444L1344.25 444L1344.25 444L1236.5 444" stroke="#323232" stroke-width="2" fill="none" marker-end="url(#SvgjsMarker3380)"></path></g><g id="SvgjsG3382"><path id="SvgjsPath3383" d="M1453 357L1344.25 357L1344.25 444L1236.5 444" stroke="#323232" stroke-width="2" fill="none" marker-end="url(#SvgjsMarker3384)"></path></g><g id="SvgjsG3386"><path id="SvgjsPath3387" d="M1453 535L1344.25 535L1344.25 444L1236.5 444" stroke="#323232" stroke-width="2" fill="none" marker-end="url(#SvgjsMarker3388)"></path></g><g id="SvgjsG3390"><path id="SvgjsPath3391" d="M1236.5 444L1344.75 444L1344.75 357L1453 357" stroke="#323232" stroke-width="2" fill="none" marker-end="url(#SvgjsMarker3392)"></path></g><g id="SvgjsG3394"><path id="SvgjsPath3395" d="M1236.5 444L1344.75 444L1344.75 535L1453 535" stroke="#323232" stroke-width="2" fill="none" marker-end="url(#SvgjsMarker3396)"></path></g><g id="SvgjsG3398"><path id="SvgjsPath3399" d="M494.5 760L315.25 760L315.25 672L136 672" stroke="#323232" stroke-width="2" fill="none" marker-end="url(#SvgjsMarker3400)"></path></g><g id="SvgjsG3402"><path id="SvgjsPath3403" d="M494.5 760L315.25 760L315.25 760L136 760" stroke="#323232" stroke-width="2" fill="none" marker-end="url(#SvgjsMarker3404)"></path></g><g id="SvgjsG3406"><path id="SvgjsPath3407" d="M494.5 760L315.25 760L315.25 852L136 852" stroke="#323232" stroke-width="2" fill="none" marker-end="url(#SvgjsMarker3408)"></path></g><g id="SvgjsG3410"><path id="SvgjsPath3411" d="M136 672L315.25 672L315.25 760L494.5 760" stroke="#323232" stroke-width="2" fill="none" marker-end="url(#SvgjsMarker3412)"></path></g><g id="SvgjsG3414"><path id="SvgjsPath3415" d="M136 760L315.25 760L315.25 760L494.5 760" stroke="#323232" stroke-width="2" fill="none" marker-end="url(#SvgjsMarker3416)"></path></g><g id="SvgjsG3418"><path id="SvgjsPath3419" d="M136 852L315.25 852L315.25 760L494.5 760" stroke="#323232" stroke-width="2" fill="none" marker-end="url(#SvgjsMarker3420)"></path></g></svg>